<mxfile host="62246395-ed24-4e92-b9bc-78ceb283fa8e" modified="2020-09-19T20:22:34.562Z" agent="5.0 (Windows NT 10.0; Win64; x64) AppleWebKit/537.36 (KHTML, like Gecko) Code/1.47.3 Chrome/78.0.3904.130 Electron/7.3.2 Safari/537.36" etag="oWIw3Nx8hbFNJlkyQWSd" version="13.1.3">
    <diagram id="6hGFLwfOUW9BJ-s0fimq" name="Page-1">
        <mxGraphModel dx="1258" dy="467" grid="1" gridSize="10" guides="1" tooltips="1" connect="1" arrows="1" fold="1" page="1" pageScale="1" pageWidth="827" pageHeight="1169" math="0" shadow="0">
            <root>
                <mxCell id="0"/>
                <mxCell id="1" parent="0"/>
                <mxCell id="6" value="ssh" style="edgeStyle=orthogonalEdgeStyle;rounded=0;orthogonalLoop=1;jettySize=auto;html=1;entryX=0;entryY=0.5;entryDx=0;entryDy=0;" edge="1" parent="1" source="3" target="4">
                    <mxGeometry relative="1" as="geometry"/>
                </mxCell>
                <mxCell id="3" value="Instance 1" style="rounded=0;whiteSpace=wrap;html=1;strokeColor=#3333FF;" vertex="1" parent="1">
                    <mxGeometry x="73" y="60" width="277" height="230" as="geometry"/>
                </mxCell>
                <mxCell id="2" value="" style="shape=image;verticalLabelPosition=bottom;labelBackgroundColor=#ffffff;verticalAlign=top;aspect=fixed;imageAspect=0;image=data:image/png,iVBORw0KGgoAAAANSUhEUgAABEgAAAGiCAYAAAD0nPOVAAAACXBIWXMAAC4jAAAuIwF4pT92AAAgAElEQVR42u3d325bR6Lv+V/ZiTvubDcVy4mTneMt9hzgALOBM1JDD2D2zdxafZsbM8BcDmBl5gFIPkErg7kcINSNbiM9QagHCCLNPrPnTGN3N9nOPzumTNpJlPhfzcUq2oyifyTXKlat+n4AwoktcS3WqvWnfqw/xlorAAAAAACAlF2gCAAAAAAAQOoISAAAAAAAQPIISAAAAAAAQPIISAAAAAAAQPIISAAAAAAAQPIISAAAAAAAQPIISAAAAAAAQPIISAAAAAAAQPIISAAAAAAAQPIISAAAAAAAQPIISAAAAAAAQPIISAAAAAAAQPIISAAAAAAAQPIISAAAAAAAQPIISAAAAAAAQPIISAAAAAAAQPIISAAAAAAAQPIISAAAAAAAQPIISAAAAAAAQPIISAAAAAAAQPIISAAAAAAAQPIISAAAAAAAQPIISAAAAAAAQPIISAAAAAAAQPIISAAAAAAAQPIISAAAAAAAQPIISAAAAAAAQPIISAAAAAAAQPIISAAAAAAAQPIISAAAAAAAQPIISAAAAAAAQPIISAAAAAAAQPIISAAAAAAAQPIISAAAAAAAQPIISAAAAAAAQPIISAAAAAAAQPIISAAAAAAAQPIISAAAAAAAQPIISAAAAAAAQPIISAAAAAAAQPIISAAAAAAAQPIISAAAAAAAQPIISAAAAAAAQPIISAAAAAAAQPIISAAAAAAAQPIISAAAAAAAQPIISAAAAAAAQPIISAAAAAAAQPIISAAAAAAAQPIISAAAAAAAQPIISAAAAAAAQPIISAAAAAAAQPIISAAAAAAAQPIISAAAAAAAQPIISAAAAAAAQPIISAAAAAAAQPIISAAAAAAAQPIISAAAAAAAQPIISAAAAAAAQPIISAAAAAAAQPIISAAAAAAAQPIISAAAAAAAQPIISAAAAAAAQPIISAAAAAAAQPIISAAAAAAAQPIISAAAAAAAQPIISAAAAAAAQPIISAAAAAAAQPIISAAAAAAAQPIISAAAAAAAQPIISAAAAAAAQPIISAAAAAAAQPIISAAAAAAAQPIISAAAAAAAQPIISAAAAAAAQPIISAAAAAAAQPIISAAAAAAAQPIISAAAAAAAQPIISAAAAAAAQPIISAAAAAAAQPIISAAAAAAAQPIISAAAAAAAQPIISAAAAAAAQPJeowjKZbGhNUnrktr9ltqUCCKrv3VJdUnNfksdSqQcjDHNE/6pY63tTPA+NUm14/7NWtssQTl1JXUl7Y3/aa3t5riN3MrQvdeCpJVj/nn0WTTJMQYAAJjr85i1llIoR8OyKqkt6ebYX+/S0EQk9bcmaUPS8pH6W++31KWEom/4n3SjaU3SKHdBS+OExr0pcTn9Ma+QYdYyNMbUJa1JujXhpnvKAp8NAhMAABAqepDE37BckNSUdOeYf74p6bPFhjYlrfdbGlBiCLD+bki6fUL9/ftiQy1JG9RfYH5cb5G2pKUp32LJvfYkQnsAABAm5iCJu3FZV9aF+c4ZP3pbUnexoSalhoDqb9PV39tn/GjD1d86pQb453qNfKbpw5Fxe5QoAAAIFT1I4mxY1vTr4QhnqUhqjOZ4YNgN5lx/2xM2tiqSPnH1l2FjgCfGmKq73+SFnmAAACBYBCRxNSyryobT3J7hbZaUDbvZUTbspkvJwmP9beuX8+RMimFjgF8bygLKXDD/CAAACBkBSTyNy6ay1WnyelC9JekW8zvAQ91dcHW3kePb3pa0ttjQRr/F0DFgAp3z/qAxZkFnT8a66d6ze+Tvx1e3qbn/X6b4AQBAyFjFJvzG5Zqyb/CWCtxMT9mwhTYljpzrb11Zr6ei6y/DxkK+0bCKzazl9Md59LwwxqxJ+vSEfx5KqllrmVMEAACUBj1Iwm1YVjX7cITzWtKr+R3W+y0m0cPM9XdFWbDnq/5+tthgWWAgZyun/FuTcAQAAJQNAUl4DcvTlu0t2k1JXyw29LGyHiUMu8E09fekZXt91F+WBcZLbojIirIhHlX3GjX8x4cr7ro/9yR1rLXbE25jzb3nin49lGSoVyu37CmbpLQzS48Q17Nj9LnGt7evbLhL01o7OOF3a+73fmWS3jyStgs6ZlVXnqPPNn6sesqG8nTd59w+6XMeec/jPlfbWts9st26e62Mv+9Zvz9WB9bcPt88cuy33c9zTQIAIPTnR4bYBNW4rCvnCfFmMFQWkmxwZHDO+ruuLNwLpf6uM2wsmKDC+xAbFwR8NuUu9yStnxWUuOVvp7pmHzck6LQhNq7hXdfZc4KM6v+xw18mLMNz/2wOdWTaXmcf65RA6JRy/chau+GCkaZ+Ger+YkjTCb/fUtbL8+jvnnpNstZyTQIAIGAXKIIgGpa1xYb2JH0SSONSbj/+vNjQnluWFTit/nYl/Tmw+vvJYkMd6m+yZvm2fknSpy4AOanRXZ/hmj2c8Oe3lc0FcmuC+h9NQ9yVZUfTDcm7I6njApZJrLgA6O+arsfburLeIbcnOCafnFanAADA/BGQzLdhWV1sqK3sW85QZ/dfVja/w7abFwUYr7/brv4uBbqbo2WB2274DxKR0/wYn7geBseZpXfdpPs2TQizPEVo4J3bx1m/HFiW1HZDXc7rtk5eWat2zmMyzT5vTLifAADAIwKS+TUum5rs26d5uyVpb7GhJg3N5Ovuwlj9vRXJbt+W1HX7jXTs5/Ae68c06mszNui7nj7/WgTHqJ3T+ywfd6wCVInkuAAAkCQmafXfuPSxbG+RD3YNSfXFhtb7rWIm6QP1t8j66+b6YVngMDSMMY0C378jNymq+/O4nhtnze1RO+ffjXwkac9a23G9T6ru70f/veL2x4dqyAff9R45rffkjiurvbFyr59y/RnNgzSrab4EGN/XqrIQ5KQ6tSYxPxIAAEE+nzBJq7eGZVX+lu31hWVV06m/Ppftpf6W7UZz8uSjuZl10lBjzPZJDdoJJi/dtdbWCiynobL5SLaVrYQzcCFDR8f3aPnV/oQ0Setp7y/pw5MmNDXGtHVy78s/Hl0haIL6tylp4+jwrDN+f1PZJLHdY/azc8I1c99au8KVAQCA8DDEpviG5cJiQxvKJoK7WbKPN1pWdYNhN6Wvv1+UuP4ybAxS2N/o91xgsGCtrVtrXy5v6xrze5GWee2Ev98/Y7WX04bSTBM87Er6gyvbScryY/c73RP+vXPC3y9zugEAECYCkmIbl3VlY83vlPyj3lE2v0Odo079jVCD+gvNturNy8Z5QROj1hNbHvbU4ZsuHDppfplJws6epD9Za2tTTuo74LQBAKBcCEiKaViGuGxv0UbLqrIsMPU35vrLssA4j+4p9egLY0zHGNN0k7miGHmEE3VrLXNpAQCAl5ikNf/GZd01LFM1WhZ4U9J6v8U3bBHV3aqyCQ5vJ1wM2bLAd+5/1P/4nQ1qReF6mmxFl6pmmCDYLa96Ug+PSXp+dM5Rj24qm4R26H5+W9LLoTEAAAAIDwFJ/qoUgeQa2WuLDW30WyytGjq3/O260ukxcrwnh/fs/bvXdfh4QXqHilG8trX23NeHMyb1POl31nT6KjUTs9Z2jTE753zPivu5W5I2jDEbk3xmAAAA+ENAgiKxrGrgIl+2Nz/W/mS/+4fV8MF1akV5nLHayazqyiZ2nSR4qSjrVVK11tY5QgAAAGFhDhL4sKRs2E3HDePAnC02VF1sqCPpU6Uejjz8dmj/tv+Ghg8uUzPKwxhTV4HDxay1A2vtmqQ/KlvqdTjBr98uaDJXAAAAzIAeJPBptKxqS9IG85P455azXdeEwxRK6efDB/ab/7imp08q1IxSWvexEWttR25OEjcp6+h11rLYNcW7PC8AAEAp0YME88CyqnMwtmxv2uHIi+dD++VfZP/x79f09AkVo7yWT/j7fUkfKuv5Mf76aNYNWms71tqmtbYm6S1lPUtOshBz4RpjqlQxAABQNvQgwbyMllWtK1vthm9SC+KWrW3q7G+0y83aQw3uPbEPvqLHSMmd0XivHbeSjDEm5+pmB5LqbijNcgmLuaZsDpYiVHP6GQAAgIkQkGDebkr6gmWB8+eG02wo7WV7Mz8M7tlvu9f14jnzjKThxMbzHJbZjfmadlpwvWGM2bPW7hVQNjVjzMJJx8oNZTpp7qRuQOV3Ui+hIacoAABhIiBBKEbLAjf7LW1QHLNh2V7nyWEWjPz8I6vTpOXERrJbQea4f69NsgFjzLqkzjkCgmrE5XjaZ6tI6riVgjo6PuyoHn1Za8fLo6PjVwFaktQ2xtSPhiQuHNk+Zb86HsunelKQ43oO1acoVwAAMEcEJAhJRdKfFxtaF8sCT8UNp2kr9ZVpXjwf2gdfXmLZ3jRZa7unDJnZNsZsKAtRaq7hvqYJwkTX+P2z+29J2nUBwdGG79op5+IgknLc1cnD8yqS7rjXNLZH5XiMW5Ieuu2PLOj04Ur7J4RfRbmtbEWi4THH/rQhjQQkAAAEioAEIRotC7yjbNhNlyI5nVs+eUPHfxubloffDu3BtxW9eE7FSNtJDftlSZ/M+N7VExrDk5x/nUjKcV3SF3m9mTGm5lb+GQUwmzp9GOAkcyc151RGlQn3s83pCQBAmFjFBiG7JWlvsaGmm08DRyw2tOCG0/xdqYcjh48f2O6/yT74inAERTdCV2b8/d0Z5+7wxu3nhwVuYl3ZykKz2rTWbkdQpNEcewAAUkRAgtBVlC1Lu7fY0BrF8YpbAWhPLNubLdv75V9YthfjDfu2sl4kk+id8+dqM+zaUIpriXNXln9SPpOL1o6898D93e4M7/mxtTaGMt2XuI8BABAyAhLEYknSp4v/+8MtikJabKitbJhAunONWHtoH3z5k/3rXkWHj6kUOM6apI/P+JmhpE1Jv1fWm+E8mu53ehPsy2g7Vc/zZOR0utltZUOLPtL0PT52dczQImvtwFpbU9ZTZZL33pT0R2vtegRF+LFOWGIaAACEw1hrKYV8G65Npf6NfhGePTmw33av6vDx7sHWao16po4mG/NeLo/6X9nv7r5f4FCa1sHWapMTryQ3OmOqysKS8aF6A51vFZrzvH/NvfdxQ28GkvZG826UqExHn3dFJy9n2x29JgmFxt67FkJ5GmNOelBqKRvKVT2lHPZcPSMYAQAgAkzSirDZFz/b7+6+0PDBVQoDY8v2vk9h4NyXkaxxvlHg+48a69sJlelAWW+QTkzvXVDd6kqsugYAQBkQkCBcrEaCkRfPh/Ze73V9/5BlewEAAAAUgoAE4fn5x4H95q8LevqkQmEkztofNbj3lKAMAAAAQNEISBCO588e22/+dkWHj1nSF9IPg3v2u7vXWZkGAAAAgA8EJJg/a3+y/a+kh/euUBjQsycP7Lfdazp8zHAaAAAAAN4QkGC+ht89tg++usLwCcjaQ/vdP6Thg2sUBgAAAADfCEgwHz8fPrDf/Mc1PX1CrxFIjx48sN99eY2gDAAAAMC8EJDArxfPh/Zet6LvB/QSQLZs79f/cV1Pn1AfAAAAAMwVAQn8sPZQD7+9YPtfszINYli2d8BBAnCMfXd96LgXAAAoEQKS/HUpgiN+GNyz33avM3wCL5ftffBV6EHZNgcLgPNHSQNr7R5FAQBAuRGQFNOw2pBET4knh1kw8vOPrEaCmIKynYOt1S4HDIAkWWs7lAIAAGm4QBHkq9/SQKl/+/zi+dB+87cfbe/fr+vnH6kUqXvy01f2y7/Ifv3XWHoRtTloAAAAQHroQVKMDUm3k/vU8QyfgJ/68JP97h9WwwfvR7TXvYOtVYbXAAAAAAmiB0kB+i3tSdpN6kP/MLhne//tt4QjkCQ9vHfP/m3/DQ0fXI5sz9scPAAAACBN9CAptqF1s/Sf8slPX9n7/3hfh4+ZZwTS4fff2nt/f1dPn8RaHzY4iAAAAECa6EFSkH5LbUnD0n7AF88f2vu9Q9v7f97X4WMOeOpePB/ar/7yg/3y/3tXT5/E+ik2D7ZWWd4XAAAASBQ9SIrVlnSnVJ/I2h80uPfMHnz7Fsv2QtYe2v7XP+nht2+V5HwFAAAAkCh6kBSrXN31Xzx/aHv/7U374KsK4Qj05PCe/dv+5ZKEI72DrdUOBxUAAABIFwFJgfotdSXtlOYDPX/2KOLhE8jbj49/KlFQxtwjAAAAQOIISIrXpgiAoA05TwEAAAAQkBSs39K2pB4lkZsFioByyNk2k7MCAAAAICDxo00R5Gb56gefV1MugMWGViQtUxVyw/AaAAAAAAQkNMCi1Ez8869TBXKzf7C1ukcxAAAAACAg8aDf0kDSJiWRm7WrH3ye5BCTxYYWJN2mCuSG8BIAAACAJOk1isCbNg3b3FQk1RNt3NJ7JD9DSdsUQ/GMMTVPm+paa7sJl/OCpBUf27LWdqjZAACgbAhIPOm31FlsqCdpidLILShIMSCpc+hzw+SsHstaWbBZtM3Ez5GmpDuetmWo1gAAoGwYYuP/4RX5WLr6wedrKX3gxYbqImDjfIyTr546tcTL2dc1cYcqDQAAyoiAxH8jYUgx5Ca14SZ1Dnludg+2VrsUg9drnw9LxpiVFAvYGFOVvwCVoWkAAKCUCEg8cpO18mCZn5upLPnrlva9ySHPTZsi8KrjcVtriZbxWkmPJwAAgDcEJP6xaka+mol8TiZnzc/wYGu1TTH4Y60dyN+wjFQDkpqn7eynPBEuAAAoNwISz/ot7UnapSTyawyVfclflvbNXZsimIuOp+0su9VcUnPL03boBQkAAEqLgIQGWuxGS/6WGb1H8kUvrvnw2bBOqheJMWatpMcRAADAKwKSOei31BaTteap7AFCnUOcmx0mZ50PNyxj39PmaokVr6/P27PW7lGbAQBAWRGQzE+bIshNaZf8ZWlfzruS6XjaTmrzkKyV7PgBABANY8yCMaZmjKkbY5rGmG1jTMcYYymd+LxGEczNhqQ7FENu1lXOrt91Dm1uegdbqwwPmK+2p+texRizkkJvB7esMcv7AgBQ7P22KqkqaUXSwtifrDJZMgQkc9JvqbvY0I78TaxXdjevfvB5tUzDJ1jat5DGOebIWrtnjBkqmzuoaHWlMX9PzePxIyABAJSW+9JhPPyouT+XKZ10EJDMv8FGQJKfpsrV44LJWfM/3zB/2/KzKlMtkfL0Nbxmh6oLACgTY8y6u49WxZB2OMxBMkf9lrYl9aLZ4dcuvaMLF4NuKJRlyd8Ylva13w9iupEwOWs4Op62s+y6w5b5wc5n1156jwAAymbN3UcJR/ASAcn8tSN6Gr9srr4b8uo7ZVryN+zeIy+eD3X4OKbyZGnfcPhsaNdKXpY+P1+HqgsAAMqOgISG22Qqb78IfA/LMiylHvLO2QdfXoqoLHsHW6s07kKpO9YOJO162lzZV7Px9fn23TLNAAAApUZAMmf9lgaSNuOpMRffUuXaYcB7GP2Sv8Ev7Wtf/Kzhg8sRFSm9R8LjqxdJreTlWCvZ8QIAAJhvc5ciCEI7pp01V9/7IfBdjL0XST3ovXt4j/MLsTS4K8aYWhkLkOV9AQAA8kdAEoB+Sx3FNVnrNV2+EvIe3rz6wefVGOtCDEv72of3fhNRkW4ebK0OuMoEVoey4Rq+rnllHWbj63P1rLV71FoAAJACApJwNGPaWXPt/buUZyHC7v3y+OH3evE8pvJsc2kJlq9eCQQks+lQVQEAQCoISMJqLAyj2ds33ryh14OepzO6JX+jWNq3/+U/RVSk+0zOGvw1z4elsi3365b3XS7ZcQIAAJg7ApJAuMlao3oQNW/fCHkyihiX/A2798jPPw709ElM5cnkrAGz1nbkLxQuWy+SNY/HiYAEAAAkg4CEBt30flv5nS5cDHkPY5ustR50g/a7L2PqkTMU33zHgNVswv48O1RRAACQEgKSgPRb2pO0G80OG3PZXH035GFB0Sz5G/zSvk9//l6Hj6NqeDM5axQ6nrZzq2TlxvwjAAAABSAgCU87qr2tvP0i8D2MpRdJPeSdswff/FNk5xHDa+LgrZePMaYUw2zc8r6Vsh0fAACAEBCQBKbfUlsxTdZ64eJbqlw7DHgPg1/yN/ilfZ8/+16P+jGdRrsHW6ssSxoBa+1A/nrN1UpSbHVP29l3yzEDAAAkg4AkTO2YdtZcfe+HwHexGfj+hd3LZfjdP3H+oEAs9zuZmqftdKiaAAAgNQQkYYpreMBrl67p8pWQ9zDYJX+DX9rXvnhiH96LqTYOD7ZW21xCouJzud+VmAvKLVfsa3lfziMAAJAcApIA9VvqKrLVA8y19+8GvHshL/kbdu+R7wfSi+cxVUUadZFxwzh6njZXi7y4fO3/0FrLMDUAAJAcAhIaevl4480bev1SyHsYahBRD7rx2v/qUmTnDZOzxolhNmHtP5OzAgCAJBGQBKrf0rb8fauaC/P2jZDHYgS35G/wS/v+MHyqp09iqoK7B1urXa4eUfLVIL9pjFmIuJxqJTseAAAAQSEgCVs7qr39beV3unAx5D0MrRdJPeTCsg/vvc75Ai91zdqO/K3eVYuxjIwxNflb3rdDrQQAACkiIAlbXMMFjLlsrr4b8hLFwSz5G/zSvj/98JMOH8dU+3pMzho9htmEsd87bvllAACA5BCQBKzf0kDSZlQ7XXn7ReB72AxkP4KenNUOv3sjstOlzRUjeh1P26lFWj61kh0HAACA4BhrLaUQsMWGapI+i2mf7f3eoYYPLge6e0NJ1YOt1cEcj+mCpIfBHsBnT5/Yv//fsU3O+nvmH4n8ZpTNDeLrvPhDTKu0uOV9/+7rXHIrC4X02atT/OoePWGmLvPaBD8+YMWjoK6h1RCPh1tifeL5n9zwS8R5neiGdC855XN0VHCPbmutocbE5TWKIGz9ljqLDfUU8mSeRy82V9/7wYYbkIyW/J3n8KWwe488/Da2cGSHcCR+1tqBMWZf0rKHzdUkxdSo8zW8Zt/XA+1Yg2n0kD3egLqZ0zZefi5JA0ld99pTFqAked1wZb+iLHgalfuKppzjZqyce2PlO17OBFXFHcsFd31Yk3RL0q489pIbayQfPY8X8riWj9Utuc8mV68Gynq7dVM9jz3VrRV3bBfGrhlLEx6/XXfMOtZaJgBHFAhI4tCU9Ek8terSNV2+ooDnsFjXfAOSerDH7sWLZ3rUj+260OYSURptSX/2dA7GNMeTrwZPp6AH7PHG+NQN8RmMGmo3j+zfcPTg7h7eO2U8qVwjdvQq8pvSJfc6Ws49V8Z7mk8wee5eLjP0WDpN7o14F3KtKwtGxs+nlQLqz6hMau7P6pzO45tH/myMncedsfN4L5DzLs+6VHgQNHadGF2nl3I8bjcl3XHHqi1pI8/PM2NZL3ioC4Xfw+ltlfMxY4hN+NyQjO4cbkbT++mHu/buf78R8B7+6WBrdXsOx7KukMOuwX3Z7+7GdHr0DrZWq1wlStOQW5H0hafNvRXLN9vGGF836pmGHhX4gO3LUNlkwduxf9NpjBn1KliL6tmhGLvW2to5y605anjn6GNr7XpOx7WuLOC9eUpDyczw/gtj53BtTkHIzM8F7jxuzzMsybkubVpr6wU02keveSwa0FIWlAwCK+sY9ay1PAvniB4kEei3NFhsaFvS7Wh2+o03b+j1S9LTJ6Hu4br8rZoxrh7yYbODe7GdHhtcIcrDWrvnvm320bBeUwS9j1xD10s4MGljIoAH7LxV3H32tquH7bwe4D3VlQV3b6srvnCqzFZyOLZ1Zb2Jl85TD85bZ8cCkdFruQTlvSTpjrIeCz1XbtuRD/Vay+n6MApNa5p/8NWQVDfGrDGP0cy6FEG+WMWGhmBxD2tv3wi5te19yd/gl/Z91A850DpJm0tD6fgKLmuRlEcttHI3xqwYYwbKJhBvqBzhyHGNrIakrjGm6RoXYd5rjVlw36B23T4TjoRlZYZjWzfGdJX1PF3Kc3sudHko6VMXKCyX9Dz+xJ3H6xF/jorrYTnNtaFujNl2x/oTZXPVVAI6Ph1XF4FgEJBEot/Snl5NUBWH31Z+pwsXQ97DpufthT0566N+bKfF5jxXI0JhOp62sxZJefjaz0mCqQWlM2yjoldBSXB1xjUsum4fUx9KE3Idmvi4ThGM4PRj8GdjzJ6P+SAKUj9n3TkpFAn52HwS4vU1Il2KIF8EJHFpR7W3xlw2V98dhtzwuPrB516+FXTzyIQ7ROrwcciT6pbjfMC5uLkffFw3pvpGznPjt+qxcdSZ4Bh1EqyaFUmfGmPaIfQmcY2gjmv8EIwE/zh0vkZ5TsHIeQOAFBtVy5I+cz2uYlM7o+6sGGPa7riGHooc+0wX+j05YF2KIF8EJBHpt9T21HDI8ZHy7ReBP/DWPW0r7N4jg/uxnQ69g63VDleF0vJ1bEP/xsrX/u1OMT6/l2jdvK2sS/jcQhLXiOiqnEObymrhjGNaGwu8vISiia960TDGbIc8dO4Yyy40P1p36saYPWUTnN9WvIFpRVlIssDlAvNGQBKfdlw17OJbqlw7DHgPfQUX9WBL4NmTF/o+upEqTM5abr7mISEgmb68uwnXz2VlQ268f9vphtR8IXqNxGblhONZdd/6f6b8Aq9J6uUw4WNyS3MOO6dQc/Vmwc2NNFAWqpVl/phlBf6FYqC6FEHOzVeKIDrxTdZ69b0fAt69pasffF5oI8Qt7RvsGGLb/zq268BQDK8pO18BybHfyAVx3cwe2m8GXN6dxOuo9287XTjyCZeHKFWPOZ5NSXvKf/jtJHUy9dVDliO7ltVdoPZQ5Z13qBHqfTlgXYogXwQkkem31JW0E9VOv3bpmi5fCXkPi06r68F+8hfPY+w9ss3krOXmhnvse9pcLdBi8LVfPWvtNA9XPJB5bFy5OSwIR+JVHT+Wbp6Rohq4BCQTnscudIjBTYU8n11+mlRLzBMBSZzase2wufb+3ZBvOEUt+Rv80r6D+xf04nls1YnhNVzn8hTqMJuQh9dIBCTjjatCH1gC0t8AACAASURBVObdt6nbFHXUbrphERvKhtMU2at0mfN4YrdZRSW448FcJJzHc0NAEqF+S9uKbYK8N968odcvhbyHRT3gBr6074PYqv/+wdYq33iloeNpO7VAP7+v/Zqq4Z34BI9HNQqej2RbzDlSlkbMncD2ifvpK0wQGpY6RXDu+3GXUsgXAUnEF/LYdti8feNewLuX+5K/wS/t+6gvPX0SWzWi90g6N/w9+QmCK+ddgtPbtTJrbPuYt2g4Y9AxpKYWe21yvVOWKd5S8BZyTXBNIyD55fFpUgzBqFMEmBcCEh7G/Plt5Xe6cDHkG2PeF+Owe48cfB1bDRqKbuapSXU1m1ok5Uvj6pWbeQdtbmgNKzpMb1/Sx5ThKc8B2XxPBJ2v3GGC0GAscyzOpUcR5I+AJFL9lgaSNqPaaWMum6vvhnwjzvshqh7sJz18HGPvkTaTsyan42k7tcA+dz2S8iUg+aVmAe/H0JrJGgqbkj6U9Ja1dsVau+56o6VmhfM4mPMY02NemLN1KYL8EZDErR3dHlfefhHw3uW25G/4S/t+E2N9Z3hNYqy12/Lz7WYw31S5MfC+hlTM2oOEB7NfupnXXCSuPt6mSM+0I+kjSX+w1lattXVrbdv1jEjZAufx9I1y5iIJRo0iwDwQkESs31JHsXWtunDxLVWuHQa8h3n1IqkH+wmfPcl6kMRl92BrlYe4NHV8PRSH8nDu65zKoRHJN8/FXfsZFnK2D621a9bajUR7iZyGgGR6FdFzIRQrFAHn71yaqxRB9Jqx7bC5+t4PAe/ezEv+hr60r+1/HWM9b3OqJ8vXPCS1QD5vLaJypVH6a3k1rOoU5ZkIkfJpWHYorsLOY8xmid48Z+pSBPl7jSIoReNhQzGNU37t0jVdvhJyL4bmjA+n4T60vXierV4Tl+HB1mqbUz1Zvh7ebyX2YD5zQGKtHRhjhmKejKMP9Cuz9GgwxqwFUKa7Yw/fRx/AF8Ya4Ctz3NflWcsaNLACvx8gu8Z0KAZ4bapSBHHrtzRYbGhbkY1VNtfev2vv/vcbge7e2tUPPl+YZkLQ4Jf2HdyPsZoz90jCrLVdY8y+PMzLYYxZc/OezOe6mM1f4aOx2bPW5tUo2tP0Peb2JQ3ca7yRO+nDcPXIa949+GqarXfNPL693lEWmu1NGji4b3hrbr99hzvrorfNcc59Drhr7CzbOi5MG0xxDqwoC9+q7r/nury1MaY24zLoyEeVIjhVlyLIHwFJOWwotsnc3njzhl6/FOpKKqMlf6dpmIe9tO/DezHW7zanePK2PT0s1zTfpaSj6T1y5OHspMbY0DWSRg2njmuQFd7ocEvurrlrue8eDjXNFuzWPO7rpqTmLIGZm8tme1SvjDGj+2elROdM2e2ech733Pm7pyz46EgaFNBzp3PMeTwK3dbmdB53qBpzVz3nc+K0x2rDw/PFHwt8b3rQFYCApAT6Le0tNk69uQXJvH3jnv36r9cD3b31KR9w68EW+KN+NsQmLjtMzgrX8Gp4amzNM+SMNSCRst4ge+Ovea4k4kKYjqR1Y0zTHVdfDaza1PfFbPUaHyug9SStFTE8xVrbNsZsu0ZL0UMVKgyzOdbmFOfxTWVBySjU3Jt3DwrXo2/b9VJqSrrjcfM1qlEQFs5RT7qasieFMWbgoR53OIxxISApj7YiC0j028rvdOFiqI32pasffL52sLV67oZE8Ev7HjA5K+Jkrd0zxvQ8nF9LxphqjsNPJm0Y++glM8z5YW3DWtsMvP40XYO9Iz8hSWWGeuSjUdaTtFJkgOXee80Y01bxPVxr4ltUKeuxtSGpPUXdW7fW1gM+hwfKws6Oey7wcR6nvILKaNhU58h5Vp3Dcy4r2cA7VrEpiX5LbXdzjIcxl1V5+2HAezjpN8nBPlzoh0Gow5lOfYifJKBC6XU8bWdeXfZrnraT6zk1z14iE+7nnitjX/fJasCNgTVfx801uvdLcu6EaiipJalqrZ1quFRE5/G2x2etSiIrqPSU9Tj6UNLvrbXGWltzr+bYq2atrSobLrLLIwnKjICkXNqx7bC5+m7IdfDcS/4Gv7Tvw/vUZ8TOV1g2r4DE13Y7qVYgF5I0PW1uxfPvnVdrDsNR6oGWdeyOBiODRM7jbU0+hIi69Uu7kj5SFohUrbV1a+25eh5ZazvW2prHYwB4R0BSLvGt9nHhYkWVa4cB7+F5H6bDnZz158OQl1Q+TZtTGkcein24OadvDWuetrOdeD3aUPaNadGmrUPVsl1XXSBT5DfOS4lV4ySDkSmfzeZ1HodoX1kvkbdcb5CNGSdnrnu6lgL+m6cUQXn0W+oqW6ovKmbhnUcB797a1Q8+P/UGGfrSvnYQ5co1m0zOimP4ur7VvF4DsxVXfIyp3020MXWUj5Bo2m+ei2zs78xjfh2n7eEcKjuCkVeNc1/Pu7H3IOlJ+lhZT5EV10skz3rT5HaCMiIgKZ92dHt86fJ1Xb4S6t6Nlvw9Tbi9R549yVavoR6Dhu0kfA+zWStZ+VGPwvzmeS+Bc7esNpVNrNsk5AyiPoduV9KHbvjMeoHBaIeiRhkRkJRMv6VtRdjlzbx1/W7Au3dWAFIPds/jDEd6B1ur3HQxz4exmufPVStZ+dGwmuY+WHwviLkdf9eoL3KC3LJOprkr6Q9ujogup673+hxbvdp09aVmrW17OK+pkyglApJyake3x29Wbuj1S6Hu3dLVDz4/9hveoJf2ffFc9mGUw2s2OIVxysPYvo9z3hjjpWu1x+V9e3OYnDPUeuTjG/gQG1bzbswUWf/KNplmT9KfXEOX83Z+9TmWerWpbBhNfQ71hRVtUDoEJOUUZQPTXH3vQcC7d1Ivknqwe/z9QHrxPMaq0OYUxil8ddWvlWw7DHHw+1C/HNoH5tveKAyVrTRU9TgxdZSoz5KyeVh+Tw8jIF8EJCXUb2mgGJffurL4pi5cDHXvfrXkb/BL+x58HWP13TzYWmV8NUJo6Nc9bYflfQGMGrsr1tomRYFz2iAYAfJHQFJe7ej22JjLqrz9MOA9PPrQEu7krI/60tMnUd7sOXVxGtd92Mc8S8uelvu95WEbQ76NBoLVk/RHa+0ajV0AmD8CkpLqt9RRjJO1Xn035Dr5csnf4Jf2jXNy1v2DrVXGWuM8Or7O+UKvd8bQewRIW0tZrxHOUQAIBAFJuTXjq5EXK6pcOwx078aX/A2398jh4+wVH3qP4LzKMg9JrWTlBeB8RqvTsGwvAITWHKUISt+IGMa202bhnUcB794oGKmHuoOR9h4Z0ojDueu4v+Eia5G///i9AEAYWqxOAwDhIiApMTdZa3wPxpcuX9flK6Hu3dLi//bw/1CoS/s+e5LNPxKfbSZnxYR2PGyjUtRyv255Xx/XkX2+oQaC0qEIACBcBCTlF+eSv29dvxvszl16438Oddfsw3vUU6Qi9l4kvnqPtKkqAAAA50NAUnL9lvaUjXWNy5uVG3r9UqBnzYU3gtyvF89j7T2yy+SsmELH03aKCjJqJSsnAACA6BGQpKEd406bq+894NBNYHA/C0mon0iAWw5z38Omcl/u172fj+V9e8xzAAAAcH4EJAnot9RWhJO16srim7pwkQN43gbjoyjzpOHB1mqbo4cpdTxtJ+9eJDVP+83krAAAABMgIElHfI1QYy6r8vZDDt05POpLT59QL8F1rRhrgb/fSTpUEby6pebbEwoAgDIiIElHnJO1Xn2XOnoOdnCfeon06n02fMRH77ha4O93nKHH5ZARh5U5b5+ABgAQvNcogjT0W+ouNrQjP+Pe83PhYkWVa4caPrjMUTzB4WPp5x9j3PPdg63VLgcQM9qWdLvgbVSMMTVrbWfWN3LLBvtY3rcT00F05eKzAZ1iY7065+0vF/jezLUTxnlcoxQAxI6AJC1txRaQSDIL7zyyBCQnovcIEucjIJGyYTGdHN6n5rFcQms8rSjrxTB6VeUnLIpF0Y38muY0rNEYU/SwsgHVx+t5XHPnL+cxgNIhIElIv6XtxYZ60d3ILl2+rstXsp4S+KVnT6Tvo3wu7B1srdL9H3noeNpOLaf38TX/SBDnl2sYr7nyoxF1CmvtwBhT5CbW5vjx1jjCcXJz14yfxxVKBUCZMb9DetpR3qDfun6XQ3fMA3X/a+ohkm9UStrxsKllY0w1h4bGTQ/7uu/KZW4NKmNM0xjTlfSpsh4+hCPn0yvwvSvGmPoc6kNVBffyymP4G3593IwxbUldSZ8o64FMOAKg9AhI0hPnsIY3Kzf0+iWO3rgXz2PtPSIRkCBfvhpHtRl/v/S9R4wxTdegaohQZBrdop8B5rCaTdHPHT2qTa7n8IIxZkPS35UFW4QiAJJCQJKYfksDSZtR3rSvvveAIzhmcD8LSeKzw+SsiDQQmDXgqJWsPMYbVSvGmD1lwQgNqukVPQ9JxWf9MMasq/i5z7if5He8aq4O3qE0AKSKgCRN7Sj3+srim7pwkaPn2If3qH+AJGttV9K+h03N2tDz0YOk55Y/9t2o6qjYVUpS0fGwjZvGmE7RPUlcL4Q/l6TMSs8Nv/pM9PwCkDgCkgT1W+ooxi6pxlxW5e2HHEFJj/qx9h5hclZE3UiadjUOt/JDpSzlcEyjil4j+fAVbt2U1C1iThJjTM31JrpTpnO/zFw9+ISSAAACkpQ1o7yJX32XOivJHkQ7OStL+6IobU/bqU35e6Wbf8SFPpzTeV7b/fWGkrJQ6xNjzMAYs2GMWZu2V4kLRTbcxLyfyV9voiETtM58HtdFOAIAL7HMb7q23YNtXN/6XbhYUeXaoYYPLid75A4fS0+f0IgFftmw3DPGDD1c09YkrU/5ez7KwUtA4hrS26LnSBE68jtcqaKst8cdd2x7yub1GL2OU3WvBc13aBU9Emc7j1dEOAIAv0BAkqh+S4PFhrZV8NJ7hdzQF955ZBMOSGz/m1h3ffNga3XA2YeCG0tFX9OWjDFV903/JGGCj0bkjsey3hBzFRRZtvOcJHPJvW5Gcs5jem2KAAB+ieEKPITF59Ll67p8Jc0j9uxJ1oOEBzFgno2ltYJ/PujP7yZlvU11K4YL33YpiTP1fPWYKiM3tIaJlQHgCAKShPVb2ov1Icy8df1ukg/O/WjnHukdbK12OOtQMF91rDbhz6+V7PM3qWqFa1MEZ2L+G85jAMgdAQnifAh7s3JDr19K60i9eJ6tXsODGHAsa+1AfoaZ3JpwMsuah33an2TYz7SMMVXFMfQi9rrcVoyrzfkzFCHSLOdxXQyRA4BjEZAkrt9S2z1oxHeDv/reg6QO1uB+zA+ydIOGLx1P26mdsyFSk5+JTH2dY+tUMW/qFMHJ9dAFoqBuAUCuCEggxfotzJXFN3XhYhpH6MVz2Yf3Yt37bSZnhc/65mk7azn/XNk+N2bklq/doSR+Zdf1sMEU6AUGAKcjIIEU6zheYy6r8vbDJI7Q94NsiA31CzirUdmVn6EJtZx/bhY9a+2eh4bViuiW71tdkfbyLMhQ9H7wde0CgCQRkED9lrqK9Fsqc/XdJOqwPYh2ctb9g63VPc4yeOajN8WSCwxOvj5l39T6WCWiQ8OqpNf+bBgJvXZeWfcx107JcR4DwCleowjgtCXdim6vL1ysqHLtUMMHl0t7ZH4YSE+fxLr39B7BPGxLuuOpobEXQEPE1/CaeTSs9iUN3CvPsLWuSHrDWGs7xpgPJX2S+HndYmhN9Odx173y0uBwAsgbAQkkSf2Wthcb6inC7tNm4Z1HtsQBiX0Y7+SsB1urPMxiXg3KoYqfHHVNp4eAa54+r6+AZMVjY2pD0nZRE3G6yXOXIqrTbddj6U6ip/WmtbbJ1W3mer/gsd7vStoo8vpkjCEgAZA7hthgXJyN2UuXr+vyFQ9ny0WZt29Ir//G30P1z4fS4WPqEzA5H6HBzTOW+6152AefwyN9XPs2rbUr1to2q5T8krV2XdJHCX70lrW2Tg3Iha+Q80Nrbc1jeAsA+TX5KAKMiXY4hHnr+t1CN7Dwjszv/6u08I7fB+LBPeoTMJ2Op+0c20vEGLOmEi3ve9Z8KznZoSF8xj3B2g1JHyqNiVuHrqHd5MjnpuphGwyFAhA1AhK81G9pIGkzyp1/s3JDr1/K/30vX5H5l3/Neo74XlL42RPpUT/W6rR7sLXa5azCHM17Xo6ap+13PG1nwcM21qm2Z3ONz5qyoUhltS+pRkM7d9WC339IoAUgdgQkOCrahxFz9b0Hub3Z65dk/vk/y/yn/yL9Zk7Tm8QbjkRdj1CaRuRA2Rj4oq1N+Pe5NiI9ruhRLdFnKUP93rPWrijWLzVOaWAr64Gw4mPpauSOITUAokdAgl/ot9SR1Ity568svjlzL48LF2UW/1nmX/5VenNhfp/lxXPZh9EOr2FyVqT0sF45OvzELe+7VJLPN1It+P07VNfJGGPqkm6X6CNtSqrSA6FQK5zHAHBGc5AiwDHifDgx5rIqbz+c+vd/tyiz9K/S1ff8D6c56lFfevE81vrD3CMIha8AYe2M/4/98/nAhKwT3e5MW+VY9ncoqSXp99baOhPzFq7ob366FDGA2BGQ4KSH7igngDNX3528Tv/mtzL/6b/IXK9Kr10K4nNEPjlrm1MIQZxH2ZANHz3ijgYiNR8Ny5INQWA4xXnuccYsGGO2FX/PkR1Jf7LWLlhrmwyvAgCEgoAEv+Ima43zm8kLFyuqXDs858/KXK/K/Mv/KC/LBJ/Xo7709Em0D71MzorA+LiWLR9Z7vdWST6XT/QcOIOrYx1P9Stv+5I+VhaKGGvtGkvAAgBC9BpFgBNsKNJvqMzCO4/s8MGpM6uaxX+WFt6xunDRhLb/lslZgbyDhDsetrMmqe2W9/X1uZDefXk58H3cVxZ27SkbbrFnre1w6AAAsSAgwbH6Le0tNrQr6WZ0O3/p8nVdviIdPv71v12+IvNu9YVeu3RBUnDhiA4fH7/fcegdbK3SaENQrLUdY8xQUqXgTdWUBYS+ApKyNToXqK0nM8Y05edLi56y5ZYHY8dlfGLPrn49z8SAFWcAAGVBQILTtBVjQCLJvHX9rj18fOPlX7x+Seb675/p8j+9poCHltF7BCiEjzkbRsFIzcPn2SnhZJYrolfM8fczY2qSGj7qlaTjJkrluADA9NfwBSagjgtzkOBE/ZbainSyVr1ZuaHXL42W7f3ZVP+rXDgSrmdPsvlH4sXqNQhVx8M2KsaYdflZ3rdTwmNED5KTtT1sY9PNC8JDPGaxQhEAv1KjCOJCQIIQHswKYd77zwPzP/xPP+vqe7+JYofjDkc2D7ZWebBGqHx9A94s2ecZV/T57fsBMopAxhhTV/Gh2461ts5lIgmdgt9/xeO5QaiKWKxRBHEhIMFZ4u0V8JvfLshciCMcGdyXfcjSvkAR3Lfiux42VfGwjf05LYla9BwTy8aYqodGVc0Ys6fwJzsdaRb8/j1Jda4SyKsh6CO4cMEh894gFreNMfSuiggBCU7Vb6mrbFwyinD4WLb7b7Lf3ZVePI/1U/QOtlY7HEwErizzKJT5XCsskDfG1I0xXUmfKZJwxK2IVHTvkSbDapLSLfj9K8om+S3ifFgwxjTdefyJ/AxnBHK7d+f1JQBhS/EISHAebYogZ8+eyH7zV9kv/yI9fUKjBiheWQKSuVyPPS3Vesut1pJXg2rFGNM2xgwibVCtcV4gZ10P22i4Hh55ncdrxpi2pIfKJismGEFs54SUhYd705wbrufjujFm293PvuCwFYtVbHCmfkvbiw31uCnl4MXzbDhN/+syfao2Bxahs9Z2jTGxX8eGc15O1Uf5Ndy3Y+uTDiVy387Vxl6x37NqBb//Lr1HkuPr+vGJO48n7qHkfm9FWUBYk5+hi0hX1+O2Ku7caCrrDbp3zDk5uu6vSKrqhB6PxpgVllcvDgEJJmkENyiGGTzqxz6U5jhMzoqYbEu6E/n+z7tx5SN0uKWsN8m+e4jsHvMQueAeIEd/rpSwIVV0WTPJZWKstQOPQfEdSXeMMbtj5/HRxmjVvcp8HiNs3Tld22+717SqYh6ewhCQ4Lw2REAyncPHsv1vpMPHZa0XQCw6IiCZxZ6y8MKXZcUzmWqujDE1H+VrjKnOadJfzPc89tm76qZ7ASGK9fq3IoZIFoY5SHAu/ZYGkjYpiQk8eyJ7r5vNM1LOcGT/YGuV9BrRsNZuSxpG/BE6c94+D2Pls81yqcnpUATAy+eCWM+HKkevOAQkmESbIjing29ke/8uPeqX+VPSewQ0DvzZmfd8EW6885AqVCrLkrpuMts1H0stY+4IOoFf2o9wn7lWF4iABOfWb6mjbJI+nOSHQbZsb//rss01ctSQhyzQOPCqQ/mhIBVlY+E/lfR3Y4w1xgyMMR33arrXmltNgSUmI+aGVO1TEkBw99dJcB0uEHOQYFJNZcslYtyzJ7Lfdss6lObYRhKTsyLWuhvpNSyUYKKt2SaWQxwqejVvxK/mjzDGjP5z1/3Zda+BXk0cuMcqOcFqS/ozxQC8vL/GNj9ZxRizwDW2GAQkmOYisiFmGc+8eJ71FhncT+2TNzn4iJFbxWFfcU3+uR/KRJrW2k4JlkuOQSwPvSeGKNLLIKWnVxMhdtyfe+4zDliqci7aIiABYr+vrYg5hQrBEBtMxE3WShdrSRrcl/37v6UYjuwebK12qQCIvHEQk9AegJpUocIf2MsUGizp1UomDff6VNJnkr44MqRnwxizzjCewusXE+8DcT8XSMxDUhgCEkwj7ck5n/78vf3H/yv73d2yzzNSppsIMK7DOTdT46ot5qPyIaUyHg3puaOsZ8MXLjRpG2PWqAqFaFIEwC/aNrFNQl7lsBWDgAQT67e0p1fjjtPzw7Cvn39M9dMPD7ZW25wFiJn7dj6Wxucw0N4ENK6Kl/rQk5eTx7qwpMmSxLleB7uSPqYkgJe9qmL7ApiedgUhIMG0aCRz3IGYbbOfMz1MtpVyUO5HhyJ4qaJsaE7XGNOkOHLTFL3BgJGNyM6HKoesGAQkmEq/pbbi64qGfG4eAI1P9lOS6twHCsV8X79WkdQwxuwZY2gczMh9a16nJIAoz4dljloxCEgwizZFkJQdJmdFiR6EtiNp3G8HXIbdyBtX+5L+GGo9cOVLL52TGwZ7TOaaSz3rSPoo4o+w685jILnzgaC4GAQkmAW9CdLSpghQMp3QH/zdN1ohP0xuS/owsuM+lPSRtXbFPQyH3FOjyWl6ooqkDiFJLufxhuJb1aYn6U/W2po7j/c5kkjwfKhyxPJHQIKp9VvqStqhJJLQO9hapbs3ymab/cvlYbKtOEKSoaSWpKp7AB7pBFy2HdGL5DSjkITJW2eva/VIGoU9SR9aa6suoA3+PEa050MMkxjXOFr5IyDBrNoUAccZiBQBSX4Pk22FO1xlPBhpHtMrJ/SG1ZqY6+U0FTFfS56NwlDDzvFg5Lhnkg5HEDmfD+vufAj5+ks4XAACEsyk39K2mAE9BW2KACV8+Bko3G7ZPTcHRUzl2VHW3TeUHg+7rkG1cEIwMtrvbsD1YFRPayIkOc1NY0ydYsilvrUl/SGgc2JH2VCak4KR0X4TkqGo82FF9ORLCgEJaDzjzIcTJmcF1y/vonzYt9YOrLU1Zb1J5hGe7yvrLfJ7NzfBeY9vJ/By3VMWkjDPwsmaFEF+9c1au6Ls2/N5nccfSXrLWrs2QfhBIxZFnA/dsftaCHVsZ+z8WOcI5e81igA52JDUoBhKfXyBstpWmF1U2zEX6qg3iTFmTdlKN7cK2tRQWbjRkbQ9Q6+btqTQJ8Tdk7RijGlKWlc2tASvLBlj1mbsSdDxsJ/diM7jtqS2652zruKWFe0dOY+nPRebyndOhi516VzXzk4K54u7r9XcyjHryoY/LhW82aGkvdH54fYBBTPWWkoBM1tsqC3pdhIfdnC/Z7+7u5TIoe0dbK1WqeEAZnrYyCbRXHONl5UpG1o997C8N3q50CDF8hw9oNdFUDJux1q7RjEUWu9qY6+lGc7jzth53KV0Eek5sTJ2X5v23ia9CkK64/c5zo05HVcCEuRhsaGapM+S+LBpBSQfHWyt0oMEQFEPlqPeO+P/Lf3yG8kuD4mnluOaXoVPS5SI3gp9eewSn8e1I//MeYwUz4kFd08T50Wkx5CABHlZbKibxMNZWgHJWwdbqzxoAkAcD+ZVvfoms+YarsuJFcOfmLATADAt5iBBnpqSPqEYSmOTcAQA4uG+iezqmEl+jTE195+jP0ff/FdVri83VsSyvwCAKRGQIE/byib0ZDx0ObQpAgAoh7HJ/TrH/ftYt/Dx7uE19+fNiD5qjaMNAJgWQ2yQqyQma01jiM3+wdbqCjUaAPDyofHVfBNV9xoPU0IJUXrW2ipHCwAwDXqQIG8bSmU1m/IfRwAAXjrPqkHHhCijOVF8fbHARLUAgKkRkCBX/Zb2FhvaVVzdcfFLQzF+GwAwhZNCFDeBbF3Z8sQMxQUABOkCRYACtCmCqG0zOSsAIE/W2q61tqlsjpBhkdsam5AWAICJEJAgd/2W2kU//KBQDK8BABTC9TBZpyQAACEiIEFR2hRBlPYPtlb3KAYAQFGstTwjAACCRECCotALgeMGAMBJdikCAEBoCEhQiH5LXUk7lERUhgdbq22KAQAAAECKCEhQJBrbHC8AAI7TpQgAAKEhIEFh+i1tS+pREtFgeA0AwJcqRQAACA0BCYrWpgiisHuwtdqlGAAAAACkioAERaNXQhzaFAEAwKOVot7YWtuheAEA0yAgQaH6LQ0kbVISQesxOSsAhMUYU3evlRJ+tnVJFY4yACA0r1EE8KAt6TbFEPTxAQCEpSlpSZKMMUNJHUl7oz+ttYMYP5QLfJoFbmJI1QEATH2fstZSCijcYkPd0YNe9Ab3e/a7u0slOjy/Z/4RAAjsAc2Ysx7QesoCk9Gra63dC/jzVCXVJTUK3tSutbZGDQIArFpa+QAACCBJREFUTIMeJPClKekTiiE4O4QjABCWcw6rWXKvW2O/J0n7kgbKeppo7E+vvU5cIFKVVHOvm542zT0NADA1AhL4sq1swlbGHIelTREAQHCqM/zusvtzFEi87LHhApShsh4nI3vKApVZrEhaGNv3efay7FJ9AADTIiCBF/2WBosNbYu5SELSO9ha3aYYACA4RU7MWtEve3PcLFnZdag+AIBpsYoNfGLJX44HAOBsKxTBdFjiFwAwCwISeNNvaU/SLiURjDZFAABBqlIEU9mhCAAAsyAgAY3yNG0ebK0OKAYACNIyRTAVho0CAGZCQAKv+i21lU0Qh/lqUwQAEJ5zrmCDXxtaa7m3AQBmQkACGufp6R1srXYoBgAIUpUimArzagEAZkZAAh5iKH8AQDjoQTK5Ifc2AEAeCEjgXb+lrphIbZ4PkW2KAQCCRUAyubq1lnm1AAAzIyDBvDQl9SgGr3qS6kzOCgBBq1IEE9m01jI5KwAgFwQkmAu35O+KpJaYtLVoQ1fOKwdbqzxEAkDYWMHm/PYlrVMMAIC8GGstpYC5WmyoqqxHye0odnhwv2e/u7sUSfFuSmoebK12qWkAEPhDWbaCzReUxLnsS6oxtAYAkOu9mIAEoVhsqKYsKLkZ9I7GEZDsS1pntRoAiOihzJg1SZ9SEmfaEfOOAAAK8BpFgFD0W+pIqi02VFc2G32FUpnYUFkw0qYoACA6TNB69j2uaa1lxRoAQCGYgwTB6bfUVjZJXYvSmEhLUpVwBACiVaUITrQpaYVwBABQJIbYIGhufpINSbeC2anwhtjsKOs10qXGAEDkD2bZPCQ1SWsKfchp8YaStpX1GuEeBwAo/j5MQIIYuPlJNhTC7P7hBCSjZXs71BAAKOmDmjE1ZYHJKDhJYfjpjrJgZJt5RgAAXu+7BCSIyWJD68omcp3fA+L8A5KhspVp6GYMAKk9uBlTVTYUp6YsNKkq/qWB9yV1Ri9CEQDA3O6zBCSIzWJDC8pCkjtz2YH5BiQfKwtHeHgEALx6oHsVnKxIWlAWoMj9fyi9TnqSupL2Rn9aazscPQBAMPdTAhLEys1P0pbvMdrzCUh2lQ2n6XLkAQATP/AZs6BXq+RU9csJYUehykx3R2XBx0jXvaQsCCHYBwCEf78kIEHs3PwkbUl+Qgu/AQnzjAAAAACABwQkKI3FhpqS1lV0V2I/AclQ0sbB1mqTIwsAAAAAxbtAEaAs+i01lXUZ3oz8o2xKqhKOAAAAAIA/9CBBKS02tKJsWeD85ycprgfJrqT1g63VPY4gAAAAAPhFQIJSW2yormzFm/wCjfwDkp6yYGSbIwYAAAAA88EQG5Rav6W2stn5W8rm9QjJ0O3XCuEIAAAAAMwXPUiQDLcscFPS7ZneKJ8eJJuSmizbCwAAAABhICBBctyywBuSlqd6g9kCkl1lwUiHIwEAAAAA4SAgQbLc/CQbmnRZ4OkCkqGyeUbalDwAAAAAhIc5SJAsNz9JVdk8IEVqKVu2t02pAwAAAECY6EEC6OX8JBuSbp35w+fvQbKjrNdIlxIGAAAAgLARkABj3PwkbZ22LPDZAcm+smCkQ4kCAAAAQBwISIBjLDa0rmzFm1/PT3JyQDJUNgHrBiUIAAAAAHFhDhLgGP2WNpTNT/LxOX/lY2XzjBCOAAAAAECE6EECnGGxoRVl85PclHS0B8mupDrzjAAAAABA3AhIgHNabGhN0oYG92W/uytlwUiHkgEAAACA+BGQABO6+r9+9b8c/J/v/1+UBAAAAACUBwEJAAAAAABIHpO0AgAAAACA5BGQAAAAAACA5BGQAAAAAACA5BGQAAAAAACA5BGQAAAAAACA5BGQAAAAAACA5BGQAAAAAACA5BGQAAAAAACA5BGQAAAAAACA5BGQAAAAAACA5BGQAAAAAACA5BGQAAAAAACA5BGQAAAAAACA5BGQAAAAAACA5BGQAAAAAACA5BGQAAAAAACA5BGQAAAAAACA5BGQAAAAAACA5BGQAAAAAACA5BGQAAAAAACA5BGQAAAAAACA5BGQAAAAAACA5BGQAAAAAACA5BGQAAAAAACA5BGQAAAAAACA5BGQAAAAAACA5BGQAAAAAACA5BGQAAAAAACA5BGQAAAAAACA5BGQAAAAAACA5BGQAAAAAACA5BGQAAAAAACA5BGQAAAAAACA5BGQAAAAAACA5BGQAAAAAACA5BGQAAAAAACA5BGQAAAAAACA5BGQAAAAAACA5BGQAAAAAACA5BGQAAAAAACA5BGQAAAAAACA5BGQAAAAAACA5BGQAAAAAACA5BGQAAAAAACA5BGQAAAAAACA5BGQAAAAAACA5BGQAAAAAACA5BGQAAAAAACA5BGQAAAAAACA5BGQAAAAAACA5BGQAAAAAACA5BGQAAAAAACA5BGQAAAAAACA5BGQAAAAAACA5BGQAAAAAACA5BGQAAAAAACA5BGQAAAAAACA5BGQAAAAAACA5BGQAAAAAACA5BGQAAAAAACA5BGQAAAAAACA5BGQAAAAAACA5BGQAAAAAACA5BGQAAAAAACA5BGQAAAAAACA5BGQAAAAAACA5BGQAAAAAACA5BGQAAAAAACA5BGQAAAAAACA5BGQAAAAAACA5BGQAAAAAACA5BGQAAAAAACA5BGQAAAAAACA5BGQAAAAAACA5BGQAAAAAACA5BGQAAAAAACA5BGQAAAAAACA5BGQAAAAAACA5BGQAAAAAACA5BGQAAAAAACA5BGQAAAAAACA5BGQAAAAAACA5P3/LR+YnbSna00AAAAASUVORK5CYII=;" vertex="1" parent="1">
                    <mxGeometry x="73" y="60" width="106" height="40.43" as="geometry"/>
                </mxCell>
                <mxCell id="4" value="Instance 2" style="rounded=0;whiteSpace=wrap;html=1;strokeColor=#3333FF;" vertex="1" parent="1">
                    <mxGeometry x="480" y="60" width="277" height="230" as="geometry"/>
                </mxCell>
                <mxCell id="5" value="" style="shape=image;verticalLabelPosition=bottom;labelBackgroundColor=#ffffff;verticalAlign=top;aspect=fixed;imageAspect=0;image=data:image/png,iVBORw0KGgoAAAANSUhEUgAABEgAAAGiCAYAAAD0nPOVAAAACXBIWXMAAC4jAAAuIwF4pT92AAAgAElEQVR42u3d325bR6Lv+V/ZiTvubDcVy4mTneMt9hzgALOBM1JDD2D2zdxafZsbM8BcDmBl5gFIPkErg7kcINSNbiM9QagHCCLNPrPnTGN3N9nOPzumTNpJlPhfzcUq2oyifyTXKlat+n4AwoktcS3WqvWnfqw/xlorAAAAAACAlF2gCAAAAAAAQOoISAAAAAAAQPIISAAAAAAAQPIISAAAAAAAQPIISAAAAAAAQPIISAAAAAAAQPIISAAAAAAAQPIISAAAAAAAQPIISAAAAAAAQPIISAAAAAAAQPIISAAAAAAAQPIISAAAAAAAQPIISAAAAAAAQPIISAAAAAAAQPIISAAAAAAAQPIISAAAAAAAQPIISAAAAAAAQPIISAAAAAAAQPIISAAAAAAAQPIISAAAAAAAQPIISAAAAAAAQPIISAAAAAAAQPIISAAAAAAAQPIISAAAAAAAQPIISAAAAAAAQPIISAAAAAAAQPIISAAAAAAAQPIISAAAAAAAQPIISAAAAAAAQPIISAAAAAAAQPIISAAAAAAAQPIISAAAAAAAQPIISAAAAAAAQPIISAAAAAAAQPIISAAAAAAAQPIISAAAAAAAQPIISAAAAAAAQPIISAAAAAAAQPIISAAAAAAAQPIISAAAAAAAQPIISAAAAAAAQPIISAAAAAAAQPIISAAAAAAAQPIISAAAAAAAQPIISAAAAAAAQPIISAAAAAAAQPIISAAAAAAAQPIISAAAAAAAQPIISAAAAAAAQPIISAAAAAAAQPIISAAAAAAAQPIISAAAAAAAQPIISAAAAAAAQPIISAAAAAAAQPIISAAAAAAAQPIISAAAAAAAQPIISAAAAAAAQPIISAAAAAAAQPIISAAAAAAAQPIISAAAAAAAQPIISAAAAAAAQPIISAAAAAAAQPIISAAAAAAAQPIISAAAAAAAQPIISAAAAAAAQPIISAAAAAAAQPIISAAAAAAAQPIISAAAAAAAQPIISAAAAAAAQPIISAAAAAAAQPIISAAAAAAAQPIISAAAAAAAQPIISAAAAAAAQPIISAAAAAAAQPIISAAAAAAAQPIISAAAAAAAQPIISAAAAAAAQPIISAAAAAAAQPIISAAAAAAAQPIISAAAAAAAQPIISAAAAAAAQPIISAAAAAAAQPIISAAAAAAAQPJeowjKZbGhNUnrktr9ltqUCCKrv3VJdUnNfksdSqQcjDHNE/6pY63tTPA+NUm14/7NWtssQTl1JXUl7Y3/aa3t5riN3MrQvdeCpJVj/nn0WTTJMQYAAJjr85i1llIoR8OyKqkt6ebYX+/S0EQk9bcmaUPS8pH6W++31KWEom/4n3SjaU3SKHdBS+OExr0pcTn9Ma+QYdYyNMbUJa1JujXhpnvKAp8NAhMAABAqepDE37BckNSUdOeYf74p6bPFhjYlrfdbGlBiCLD+bki6fUL9/ftiQy1JG9RfYH5cb5G2pKUp32LJvfYkQnsAABAm5iCJu3FZV9aF+c4ZP3pbUnexoSalhoDqb9PV39tn/GjD1d86pQb453qNfKbpw5Fxe5QoAAAIFT1I4mxY1vTr4QhnqUhqjOZ4YNgN5lx/2xM2tiqSPnH1l2FjgCfGmKq73+SFnmAAACBYBCRxNSyryobT3J7hbZaUDbvZUTbspkvJwmP9beuX8+RMimFjgF8bygLKXDD/CAAACBkBSTyNy6ay1WnyelC9JekW8zvAQ91dcHW3kePb3pa0ttjQRr/F0DFgAp3z/qAxZkFnT8a66d6ze+Tvx1e3qbn/X6b4AQBAyFjFJvzG5Zqyb/CWCtxMT9mwhTYljpzrb11Zr6ei6y/DxkK+0bCKzazl9Md59LwwxqxJ+vSEfx5KqllrmVMEAACUBj1Iwm1YVjX7cITzWtKr+R3W+y0m0cPM9XdFWbDnq/5+tthgWWAgZyun/FuTcAQAAJQNAUl4DcvTlu0t2k1JXyw29LGyHiUMu8E09fekZXt91F+WBcZLbojIirIhHlX3GjX8x4cr7ro/9yR1rLXbE25jzb3nin49lGSoVyu37CmbpLQzS48Q17Nj9LnGt7evbLhL01o7OOF3a+73fmWS3jyStgs6ZlVXnqPPNn6sesqG8nTd59w+6XMeec/jPlfbWts9st26e62Mv+9Zvz9WB9bcPt88cuy33c9zTQIAIPTnR4bYBNW4rCvnCfFmMFQWkmxwZHDO+ruuLNwLpf6uM2wsmKDC+xAbFwR8NuUu9yStnxWUuOVvp7pmHzck6LQhNq7hXdfZc4KM6v+xw18mLMNz/2wOdWTaXmcf65RA6JRy/chau+GCkaZ+Ger+YkjTCb/fUtbL8+jvnnpNstZyTQIAIGAXKIIgGpa1xYb2JH0SSONSbj/+vNjQnluWFTit/nYl/Tmw+vvJYkMd6m+yZvm2fknSpy4AOanRXZ/hmj2c8Oe3lc0FcmuC+h9NQ9yVZUfTDcm7I6njApZJrLgA6O+arsfburLeIbcnOCafnFanAADA/BGQzLdhWV1sqK3sW85QZ/dfVja/w7abFwUYr7/brv4uBbqbo2WB2274DxKR0/wYn7geBseZpXfdpPs2TQizPEVo4J3bx1m/HFiW1HZDXc7rtk5eWat2zmMyzT5vTLifAADAIwKS+TUum5rs26d5uyVpb7GhJg3N5Ovuwlj9vRXJbt+W1HX7jXTs5/Ae68c06mszNui7nj7/WgTHqJ3T+ywfd6wCVInkuAAAkCQmafXfuPSxbG+RD3YNSfXFhtb7rWIm6QP1t8j66+b6YVngMDSMMY0C378jNymq+/O4nhtnze1RO+ffjXwkac9a23G9T6ru70f/veL2x4dqyAff9R45rffkjiurvbFyr59y/RnNgzSrab4EGN/XqrIQ5KQ6tSYxPxIAAEE+nzBJq7eGZVX+lu31hWVV06m/Ppftpf6W7UZz8uSjuZl10lBjzPZJDdoJJi/dtdbWCiynobL5SLaVrYQzcCFDR8f3aPnV/oQ0Setp7y/pw5MmNDXGtHVy78s/Hl0haIL6tylp4+jwrDN+f1PZJLHdY/azc8I1c99au8KVAQCA8DDEpviG5cJiQxvKJoK7WbKPN1pWdYNhN6Wvv1+UuP4ybAxS2N/o91xgsGCtrVtrXy5v6xrze5GWee2Ev98/Y7WX04bSTBM87Er6gyvbScryY/c73RP+vXPC3y9zugEAECYCkmIbl3VlY83vlPyj3lE2v0Odo079jVCD+gvNturNy8Z5QROj1hNbHvbU4ZsuHDppfplJws6epD9Za2tTTuo74LQBAKBcCEiKaViGuGxv0UbLqrIsMPU35vrLssA4j+4p9egLY0zHGNN0k7miGHmEE3VrLXNpAQCAl5ikNf/GZd01LFM1WhZ4U9J6v8U3bBHV3aqyCQ5vJ1wM2bLAd+5/1P/4nQ1qReF6mmxFl6pmmCDYLa96Ug+PSXp+dM5Rj24qm4R26H5+W9LLoTEAAAAIDwFJ/qoUgeQa2WuLDW30WyytGjq3/O260ukxcrwnh/fs/bvXdfh4QXqHilG8trX23NeHMyb1POl31nT6KjUTs9Z2jTE753zPivu5W5I2jDEbk3xmAAAA+ENAgiKxrGrgIl+2Nz/W/mS/+4fV8MF1akV5nLHayazqyiZ2nSR4qSjrVVK11tY5QgAAAGFhDhL4sKRs2E3HDePAnC02VF1sqCPpU6Uejjz8dmj/tv+Ghg8uUzPKwxhTV4HDxay1A2vtmqQ/KlvqdTjBr98uaDJXAAAAzIAeJPBptKxqS9IG85P455azXdeEwxRK6efDB/ab/7imp08q1IxSWvexEWttR25OEjcp6+h11rLYNcW7PC8AAEAp0YME88CyqnMwtmxv2uHIi+dD++VfZP/x79f09AkVo7yWT/j7fUkfKuv5Mf76aNYNWms71tqmtbYm6S1lPUtOshBz4RpjqlQxAABQNvQgwbyMllWtK1vthm9SC+KWrW3q7G+0y83aQw3uPbEPvqLHSMmd0XivHbeSjDEm5+pmB5LqbijNcgmLuaZsDpYiVHP6GQAAgIkQkGDebkr6gmWB8+eG02wo7WV7Mz8M7tlvu9f14jnzjKThxMbzHJbZjfmadlpwvWGM2bPW7hVQNjVjzMJJx8oNZTpp7qRuQOV3Ui+hIacoAABhIiBBKEbLAjf7LW1QHLNh2V7nyWEWjPz8I6vTpOXERrJbQea4f69NsgFjzLqkzjkCgmrE5XjaZ6tI6riVgjo6PuyoHn1Za8fLo6PjVwFaktQ2xtSPhiQuHNk+Zb86HsunelKQ43oO1acoVwAAMEcEJAhJRdKfFxtaF8sCT8UNp2kr9ZVpXjwf2gdfXmLZ3jRZa7unDJnZNsZsKAtRaq7hvqYJwkTX+P2z+29J2nUBwdGG79op5+IgknLc1cnD8yqS7rjXNLZH5XiMW5Ieuu2PLOj04Ur7J4RfRbmtbEWi4THH/rQhjQQkAAAEioAEIRotC7yjbNhNlyI5nVs+eUPHfxubloffDu3BtxW9eE7FSNtJDftlSZ/M+N7VExrDk5x/nUjKcV3SF3m9mTGm5lb+GQUwmzp9GOAkcyc151RGlQn3s83pCQBAmFjFBiG7JWlvsaGmm08DRyw2tOCG0/xdqYcjh48f2O6/yT74inAERTdCV2b8/d0Z5+7wxu3nhwVuYl3ZykKz2rTWbkdQpNEcewAAUkRAgtBVlC1Lu7fY0BrF8YpbAWhPLNubLdv75V9YthfjDfu2sl4kk+id8+dqM+zaUIpriXNXln9SPpOL1o6898D93e4M7/mxtTaGMt2XuI8BABAyAhLEYknSp4v/+8MtikJabKitbJhAunONWHtoH3z5k/3rXkWHj6kUOM6apI/P+JmhpE1Jv1fWm+E8mu53ehPsy2g7Vc/zZOR0utltZUOLPtL0PT52dczQImvtwFpbU9ZTZZL33pT0R2vtegRF+LFOWGIaAACEw1hrKYV8G65Npf6NfhGePTmw33av6vDx7sHWao16po4mG/NeLo/6X9nv7r5f4FCa1sHWapMTryQ3OmOqysKS8aF6A51vFZrzvH/NvfdxQ28GkvZG826UqExHn3dFJy9n2x29JgmFxt67FkJ5GmNOelBqKRvKVT2lHPZcPSMYAQAgAkzSirDZFz/b7+6+0PDBVQoDY8v2vk9h4NyXkaxxvlHg+48a69sJlelAWW+QTkzvXVDd6kqsugYAQBkQkCBcrEaCkRfPh/Ze73V9/5BlewEAAAAUgoAE4fn5x4H95q8LevqkQmEkztofNbj3lKAMAAAAQNEISBCO588e22/+dkWHj1nSF9IPg3v2u7vXWZkGAAAAgA8EJJg/a3+y/a+kh/euUBjQsycP7Lfdazp8zHAaAAAAAN4QkGC+ht89tg++usLwCcjaQ/vdP6Thg2sUBgAAAADfCEgwHz8fPrDf/Mc1PX1CrxFIjx48sN99eY2gDAAAAMC8EJDArxfPh/Zet6LvB/QSQLZs79f/cV1Pn1AfAAAAAMwVAQn8sPZQD7+9YPtfszINYli2d8BBAnCMfXd96LgXAAAoEQKS/HUpgiN+GNyz33avM3wCL5ftffBV6EHZNgcLgPNHSQNr7R5FAQBAuRGQFNOw2pBET4knh1kw8vOPrEaCmIKynYOt1S4HDIAkWWs7lAIAAGm4QBHkq9/SQKl/+/zi+dB+87cfbe/fr+vnH6kUqXvy01f2y7/Ifv3XWHoRtTloAAAAQHroQVKMDUm3k/vU8QyfgJ/68JP97h9WwwfvR7TXvYOtVYbXAAAAAAmiB0kB+i3tSdpN6kP/MLhne//tt4QjkCQ9vHfP/m3/DQ0fXI5sz9scPAAAACBN9CAptqF1s/Sf8slPX9n7/3hfh4+ZZwTS4fff2nt/f1dPn8RaHzY4iAAAAECa6EFSkH5LbUnD0n7AF88f2vu9Q9v7f97X4WMOeOpePB/ar/7yg/3y/3tXT5/E+ik2D7ZWWd4XAAAASBQ9SIrVlnSnVJ/I2h80uPfMHnz7Fsv2QtYe2v7XP+nht2+V5HwFAAAAkCh6kBSrXN31Xzx/aHv/7U374KsK4Qj05PCe/dv+5ZKEI72DrdUOBxUAAABIFwFJgfotdSXtlOYDPX/2KOLhE8jbj49/KlFQxtwjAAAAQOIISIrXpgiAoA05TwEAAAAQkBSs39K2pB4lkZsFioByyNk2k7MCAAAAICDxo00R5Gb56gefV1MugMWGViQtUxVyw/AaAAAAAAQkNMCi1Ez8869TBXKzf7C1ukcxAAAAACAg8aDf0kDSJiWRm7WrH3ye5BCTxYYWJN2mCuSG8BIAAACAJOk1isCbNg3b3FQk1RNt3NJ7JD9DSdsUQ/GMMTVPm+paa7sJl/OCpBUf27LWdqjZAACgbAhIPOm31FlsqCdpidLILShIMSCpc+hzw+SsHstaWbBZtM3Ez5GmpDuetmWo1gAAoGwYYuP/4RX5WLr6wedrKX3gxYbqImDjfIyTr546tcTL2dc1cYcqDQAAyoiAxH8jYUgx5Ca14SZ1Dnludg+2VrsUg9drnw9LxpiVFAvYGFOVvwCVoWkAAKCUCEg8cpO18mCZn5upLPnrlva9ySHPTZsi8KrjcVtriZbxWkmPJwAAgDcEJP6xaka+mol8TiZnzc/wYGu1TTH4Y60dyN+wjFQDkpqn7eynPBEuAAAoNwISz/ot7UnapSTyawyVfclflvbNXZsimIuOp+0su9VcUnPL03boBQkAAEqLgIQGWuxGS/6WGb1H8kUvrvnw2bBOqheJMWatpMcRAADAKwKSOei31BaTteap7AFCnUOcmx0mZ50PNyxj39PmaokVr6/P27PW7lGbAQBAWRGQzE+bIshNaZf8ZWlfzruS6XjaTmrzkKyV7PgBABANY8yCMaZmjKkbY5rGmG1jTMcYYymd+LxGEczNhqQ7FENu1lXOrt91Dm1uegdbqwwPmK+2p+texRizkkJvB7esMcv7AgBQ7P22KqkqaUXSwtifrDJZMgQkc9JvqbvY0I78TaxXdjevfvB5tUzDJ1jat5DGOebIWrtnjBkqmzuoaHWlMX9PzePxIyABAJSW+9JhPPyouT+XKZ10EJDMv8FGQJKfpsrV44LJWfM/3zB/2/KzKlMtkfL0Nbxmh6oLACgTY8y6u49WxZB2OMxBMkf9lrYl9aLZ4dcuvaMLF4NuKJRlyd8Ylva13w9iupEwOWs4Op62s+y6w5b5wc5n1156jwAAymbN3UcJR/ASAcn8tSN6Gr9srr4b8uo7ZVryN+zeIy+eD3X4OKbyZGnfcPhsaNdKXpY+P1+HqgsAAMqOgISG22Qqb78IfA/LMiylHvLO2QdfXoqoLHsHW6s07kKpO9YOJO162lzZV7Px9fn23TLNAAAApUZAMmf9lgaSNuOpMRffUuXaYcB7GP2Sv8Ev7Wtf/Kzhg8sRFSm9R8LjqxdJreTlWCvZ8QIAAJhvc5ciCEI7pp01V9/7IfBdjL0XST3ovXt4j/MLsTS4K8aYWhkLkOV9AQAA8kdAEoB+Sx3FNVnrNV2+EvIe3rz6wefVGOtCDEv72of3fhNRkW4ebK0OuMoEVoey4Rq+rnllHWbj63P1rLV71FoAAJACApJwNGPaWXPt/buUZyHC7v3y+OH3evE8pvJsc2kJlq9eCQQks+lQVQEAQCoISMJqLAyj2ds33ryh14OepzO6JX+jWNq3/+U/RVSk+0zOGvw1z4elsi3365b3XS7ZcQIAAJg7ApJAuMlao3oQNW/fCHkyihiX/A2798jPPw709ElM5cnkrAGz1nbkLxQuWy+SNY/HiYAEAAAkg4CEBt30flv5nS5cDHkPY5ustR50g/a7L2PqkTMU33zHgNVswv48O1RRAACQEgKSgPRb2pO0G80OG3PZXH035GFB0Sz5G/zSvk9//l6Hj6NqeDM5axQ6nrZzq2TlxvwjAAAABSAgCU87qr2tvP0i8D2MpRdJPeSdswff/FNk5xHDa+LgrZePMaYUw2zc8r6Vsh0fAACAEBCQBKbfUlsxTdZ64eJbqlw7DHgPg1/yN/ilfZ8/+16P+jGdRrsHW6ssSxoBa+1A/nrN1UpSbHVP29l3yzEDAAAkg4AkTO2YdtZcfe+HwHexGfj+hd3LZfjdP3H+oEAs9zuZmqftdKiaAAAgNQQkYYpreMBrl67p8pWQ9zDYJX+DX9rXvnhiH96LqTYOD7ZW21xCouJzud+VmAvKLVfsa3lfziMAAJAcApIA9VvqKrLVA8y19+8GvHshL/kbdu+R7wfSi+cxVUUadZFxwzh6njZXi7y4fO3/0FrLMDUAAJAcAhIaevl4480bev1SyHsYahBRD7rx2v/qUmTnDZOzxolhNmHtP5OzAgCAJBGQBKrf0rb8fauaC/P2jZDHYgS35G/wS/v+MHyqp09iqoK7B1urXa4eUfLVIL9pjFmIuJxqJTseAAAAQSEgCVs7qr39beV3unAx5D0MrRdJPeTCsg/vvc75Ai91zdqO/K3eVYuxjIwxNflb3rdDrQQAACkiIAlbXMMFjLlsrr4b8hLFwSz5G/zSvj/98JMOH8dU+3pMzho9htmEsd87bvllAACA5BCQBKzf0kDSZlQ7XXn7ReB72AxkP4KenNUOv3sjstOlzRUjeh1P26lFWj61kh0HAACA4BhrLaUQsMWGapI+i2mf7f3eoYYPLge6e0NJ1YOt1cEcj+mCpIfBHsBnT5/Yv//fsU3O+nvmH4n8ZpTNDeLrvPhDTKu0uOV9/+7rXHIrC4X02atT/OoePWGmLvPaBD8+YMWjoK6h1RCPh1tifeL5n9zwS8R5neiGdC855XN0VHCPbmutocbE5TWKIGz9ljqLDfUU8mSeRy82V9/7wYYbkIyW/J3n8KWwe488/Da2cGSHcCR+1tqBMWZf0rKHzdUkxdSo8zW8Zt/XA+1Yg2n0kD3egLqZ0zZefi5JA0ld99pTFqAked1wZb+iLHgalfuKppzjZqyce2PlO17OBFXFHcsFd31Yk3RL0q489pIbayQfPY8X8riWj9Utuc8mV68Gynq7dVM9jz3VrRV3bBfGrhlLEx6/XXfMOtZaJgBHFAhI4tCU9Ek8terSNV2+ooDnsFjXfAOSerDH7sWLZ3rUj+260OYSURptSX/2dA7GNMeTrwZPp6AH7PHG+NQN8RmMGmo3j+zfcPTg7h7eO2U8qVwjdvQq8pvSJfc6Ws49V8Z7mk8wee5eLjP0WDpN7o14F3KtKwtGxs+nlQLqz6hMau7P6pzO45tH/myMncedsfN4L5DzLs+6VHgQNHadGF2nl3I8bjcl3XHHqi1pI8/PM2NZL3ioC4Xfw+ltlfMxY4hN+NyQjO4cbkbT++mHu/buf78R8B7+6WBrdXsOx7KukMOuwX3Z7+7GdHr0DrZWq1wlStOQW5H0hafNvRXLN9vGGF836pmGHhX4gO3LUNlkwduxf9NpjBn1KliL6tmhGLvW2to5y605anjn6GNr7XpOx7WuLOC9eUpDyczw/gtj53BtTkHIzM8F7jxuzzMsybkubVpr6wU02keveSwa0FIWlAwCK+sY9ay1PAvniB4kEei3NFhsaFvS7Wh2+o03b+j1S9LTJ6Hu4br8rZoxrh7yYbODe7GdHhtcIcrDWrvnvm320bBeUwS9j1xD10s4MGljIoAH7LxV3H32tquH7bwe4D3VlQV3b6srvnCqzFZyOLZ1Zb2Jl85TD85bZ8cCkdFruQTlvSTpjrIeCz1XbtuRD/Vay+n6MApNa5p/8NWQVDfGrDGP0cy6FEG+WMWGhmBxD2tv3wi5te19yd/gl/Z91A850DpJm0tD6fgKLmuRlEcttHI3xqwYYwbKJhBvqBzhyHGNrIakrjGm6RoXYd5rjVlw36B23T4TjoRlZYZjWzfGdJX1PF3Kc3sudHko6VMXKCyX9Dz+xJ3H6xF/jorrYTnNtaFujNl2x/oTZXPVVAI6Ph1XF4FgEJBEot/Snl5NUBWH31Z+pwsXQ97DpufthT0566N+bKfF5jxXI0JhOp62sxZJefjaz0mCqQWlM2yjoldBSXB1xjUsum4fUx9KE3Idmvi4ThGM4PRj8GdjzJ6P+SAKUj9n3TkpFAn52HwS4vU1Il2KIF8EJHFpR7W3xlw2V98dhtzwuPrB516+FXTzyIQ7ROrwcciT6pbjfMC5uLkffFw3pvpGznPjt+qxcdSZ4Bh1EqyaFUmfGmPaIfQmcY2gjmv8EIwE/zh0vkZ5TsHIeQOAFBtVy5I+cz2uYlM7o+6sGGPa7riGHooc+0wX+j05YF2KIF8EJBHpt9T21HDI8ZHy7ReBP/DWPW0r7N4jg/uxnQ69g63VDleF0vJ1bEP/xsrX/u1OMT6/l2jdvK2sS/jcQhLXiOiqnEObymrhjGNaGwu8vISiia960TDGbIc8dO4Yyy40P1p36saYPWUTnN9WvIFpRVlIssDlAvNGQBKfdlw17OJbqlw7DHgPfQUX9WBL4NmTF/o+upEqTM5abr7mISEgmb68uwnXz2VlQ268f9vphtR8IXqNxGblhONZdd/6f6b8Aq9J6uUw4WNyS3MOO6dQc/Vmwc2NNFAWqpVl/phlBf6FYqC6FEHOzVeKIDrxTdZ69b0fAt69pasffF5oI8Qt7RvsGGLb/zq268BQDK8pO18BybHfyAVx3cwe2m8GXN6dxOuo9287XTjyCZeHKFWPOZ5NSXvKf/jtJHUy9dVDliO7ltVdoPZQ5Z13qBHqfTlgXYogXwQkkem31JW0E9VOv3bpmi5fCXkPi06r68F+8hfPY+w9ss3krOXmhnvse9pcLdBi8LVfPWvtNA9XPJB5bFy5OSwIR+JVHT+Wbp6Rohq4BCQTnscudIjBTYU8n11+mlRLzBMBSZzase2wufb+3ZBvOEUt+Rv80r6D+xf04nls1YnhNVzn8hTqMJuQh9dIBCTjjatCH1gC0t8AACAASURBVObdt6nbFHXUbrphERvKhtMU2at0mfN4YrdZRSW448FcJJzHc0NAEqF+S9uKbYK8N968odcvhbyHRT3gBr6074PYqv/+wdYq33iloeNpO7VAP7+v/Zqq4Z34BI9HNQqej2RbzDlSlkbMncD2ifvpK0wQGpY6RXDu+3GXUsgXAUnEF/LYdti8feNewLuX+5K/wS/t+6gvPX0SWzWi90g6N/w9+QmCK+ddgtPbtTJrbPuYt2g4Y9AxpKYWe21yvVOWKd5S8BZyTXBNIyD55fFpUgzBqFMEmBcCEh7G/Plt5Xe6cDHkG2PeF+Owe48cfB1bDRqKbuapSXU1m1ok5Uvj6pWbeQdtbmgNKzpMb1/Sx5ThKc8B2XxPBJ2v3GGC0GAscyzOpUcR5I+AJFL9lgaSNqPaaWMum6vvhnwjzvshqh7sJz18HGPvkTaTsyan42k7tcA+dz2S8iUg+aVmAe/H0JrJGgqbkj6U9Ja1dsVau+56o6VmhfM4mPMY02NemLN1KYL8EZDErR3dHlfefhHw3uW25G/4S/t+E2N9Z3hNYqy12/Lz7WYw31S5MfC+hlTM2oOEB7NfupnXXCSuPt6mSM+0I+kjSX+w1lattXVrbdv1jEjZAufx9I1y5iIJRo0iwDwQkESs31JHsXWtunDxLVWuHQa8h3n1IqkH+wmfPcl6kMRl92BrlYe4NHV8PRSH8nDu65zKoRHJN8/FXfsZFnK2D621a9bajUR7iZyGgGR6FdFzIRQrFAHn71yaqxRB9Jqx7bC5+t4PAe/ezEv+hr60r+1/HWM9b3OqJ8vXPCS1QD5vLaJypVH6a3k1rOoU5ZkIkfJpWHYorsLOY8xmid48Z+pSBPl7jSIoReNhQzGNU37t0jVdvhJyL4bmjA+n4T60vXierV4Tl+HB1mqbUz1Zvh7ebyX2YD5zQGKtHRhjhmKejKMP9Cuz9GgwxqwFUKa7Yw/fRx/AF8Ya4Ctz3NflWcsaNLACvx8gu8Z0KAZ4bapSBHHrtzRYbGhbkY1VNtfev2vv/vcbge7e2tUPPl+YZkLQ4Jf2HdyPsZoz90jCrLVdY8y+PMzLYYxZc/OezOe6mM1f4aOx2bPW5tUo2tP0Peb2JQ3ca7yRO+nDcPXIa949+GqarXfNPL693lEWmu1NGji4b3hrbr99hzvrorfNcc59Drhr7CzbOi5MG0xxDqwoC9+q7r/nury1MaY24zLoyEeVIjhVlyLIHwFJOWwotsnc3njzhl6/FOpKKqMlf6dpmIe9tO/DezHW7zanePK2PT0s1zTfpaSj6T1y5OHspMbY0DWSRg2njmuQFd7ocEvurrlrue8eDjXNFuzWPO7rpqTmLIGZm8tme1SvjDGj+2elROdM2e2ech733Pm7pyz46EgaFNBzp3PMeTwK3dbmdB53qBpzVz3nc+K0x2rDw/PFHwt8b3rQFYCApAT6Le0tNk69uQXJvH3jnv36r9cD3b31KR9w68EW+KN+NsQmLjtMzgrX8Gp4amzNM+SMNSCRst4ge+Ovea4k4kKYjqR1Y0zTHVdfDaza1PfFbPUaHyug9SStFTE8xVrbNsZsu0ZL0UMVKgyzOdbmFOfxTWVBySjU3Jt3DwrXo2/b9VJqSrrjcfM1qlEQFs5RT7qasieFMWbgoR53OIxxISApj7YiC0j028rvdOFiqI32pasffL52sLV67oZE8Ev7HjA5K+Jkrd0zxvQ8nF9LxphqjsNPJm0Y++glM8z5YW3DWtsMvP40XYO9Iz8hSWWGeuSjUdaTtFJkgOXee80Y01bxPVxr4ltUKeuxtSGpPUXdW7fW1gM+hwfKws6Oey7wcR6nvILKaNhU58h5Vp3Dcy4r2cA7VrEpiX5LbXdzjIcxl1V5+2HAezjpN8nBPlzoh0Gow5lOfYifJKBC6XU8bWdeXfZrnraT6zk1z14iE+7nnitjX/fJasCNgTVfx801uvdLcu6EaiipJalqrZ1quFRE5/G2x2etSiIrqPSU9Tj6UNLvrbXGWltzr+bYq2atrSobLrLLIwnKjICkXNqx7bC5+m7IdfDcS/4Gv7Tvw/vUZ8TOV1g2r4DE13Y7qVYgF5I0PW1uxfPvnVdrDsNR6oGWdeyOBiODRM7jbU0+hIi69Uu7kj5SFohUrbV1a+25eh5ZazvW2prHYwB4R0BSLvGt9nHhYkWVa4cB7+F5H6bDnZz158OQl1Q+TZtTGkcein24OadvDWuetrOdeD3aUPaNadGmrUPVsl1XXSBT5DfOS4lV4ySDkSmfzeZ1HodoX1kvkbdcb5CNGSdnrnu6lgL+m6cUQXn0W+oqW6ovKmbhnUcB797a1Q8+P/UGGfrSvnYQ5co1m0zOimP4ur7VvF4DsxVXfIyp3020MXWUj5Bo2m+ei2zs78xjfh2n7eEcKjuCkVeNc1/Pu7H3IOlJ+lhZT5EV10skz3rT5HaCMiIgKZ92dHt86fJ1Xb4S6t6Nlvw9Tbi9R549yVavoR6Dhu0kfA+zWStZ+VGPwvzmeS+Bc7esNpVNrNsk5AyiPoduV9KHbvjMeoHBaIeiRhkRkJRMv6VtRdjlzbx1/W7Au3dWAFIPds/jDEd6B1ur3HQxz4exmufPVStZ+dGwmuY+WHwviLkdf9eoL3KC3LJOprkr6Q9ujogup673+hxbvdp09aVmrW17OK+pkyglApJyake3x29Wbuj1S6Hu3dLVDz4/9hveoJf2ffFc9mGUw2s2OIVxysPYvo9z3hjjpWu1x+V9e3OYnDPUeuTjG/gQG1bzbswUWf/KNplmT9KfXEOX83Z+9TmWerWpbBhNfQ71hRVtUDoEJOUUZQPTXH3vQcC7d1Ivknqwe/z9QHrxPMaq0OYUxil8ddWvlWw7DHHw+1C/HNoH5tveKAyVrTRU9TgxdZSoz5KyeVh+Tw8jIF8EJCXUb2mgGJffurL4pi5cDHXvfrXkb/BL+x58HWP13TzYWmV8NUJo6Nc9bYflfQGMGrsr1tomRYFz2iAYAfJHQFJe7ej22JjLqrz9MOA9PPrQEu7krI/60tMnUd7sOXVxGtd92Mc8S8uelvu95WEbQ76NBoLVk/RHa+0ajV0AmD8CkpLqt9RRjJO1Xn035Dr5csnf4Jf2jXNy1v2DrVXGWuM8Or7O+UKvd8bQewRIW0tZrxHOUQAIBAFJuTXjq5EXK6pcOwx078aX/A2398jh4+wVH3qP4LzKMg9JrWTlBeB8RqvTsGwvAITWHKUISt+IGMa202bhnUcB794oGKmHuoOR9h4Z0ojDueu4v+Eia5G///i9AEAYWqxOAwDhIiApMTdZa3wPxpcuX9flK6Hu3dLi//bw/1CoS/s+e5LNPxKfbSZnxYR2PGyjUtRyv255Xx/XkX2+oQaC0qEIACBcBCTlF+eSv29dvxvszl16438Oddfsw3vUU6Qi9l4kvnqPtKkqAAAA50NAUnL9lvaUjXWNy5uVG3r9UqBnzYU3gtyvF89j7T2yy+SsmELH03aKCjJqJSsnAACA6BGQpKEd406bq+894NBNYHA/C0mon0iAWw5z38Omcl/u172fj+V9e8xzAAAAcH4EJAnot9RWhJO16srim7pwkQN43gbjoyjzpOHB1mqbo4cpdTxtJ+9eJDVP+83krAAAABMgIElHfI1QYy6r8vZDDt05POpLT59QL8F1rRhrgb/fSTpUEby6pebbEwoAgDIiIElHnJO1Xn2XOnoOdnCfeon06n02fMRH77ha4O93nKHH5ZARh5U5b5+ABgAQvNcogjT0W+ouNrQjP+Pe83PhYkWVa4caPrjMUTzB4WPp5x9j3PPdg63VLgcQM9qWdLvgbVSMMTVrbWfWN3LLBvtY3rcT00F05eKzAZ1iY7065+0vF/jezLUTxnlcoxQAxI6AJC1txRaQSDIL7zyyBCQnovcIEucjIJGyYTGdHN6n5rFcQms8rSjrxTB6VeUnLIpF0Y38muY0rNEYU/SwsgHVx+t5XHPnL+cxgNIhIElIv6XtxYZ60d3ILl2+rstXsp4S+KVnT6Tvo3wu7B1srdL9H3noeNpOLaf38TX/SBDnl2sYr7nyoxF1CmvtwBhT5CbW5vjx1jjCcXJz14yfxxVKBUCZMb9DetpR3qDfun6XQ3fMA3X/a+ohkm9UStrxsKllY0w1h4bGTQ/7uu/KZW4NKmNM0xjTlfSpsh4+hCPn0yvwvSvGmPoc6kNVBffyymP4G3593IwxbUldSZ8o64FMOAKg9AhI0hPnsIY3Kzf0+iWO3rgXz2PtPSIRkCBfvhpHtRl/v/S9R4wxTdegaohQZBrdop8B5rCaTdHPHT2qTa7n8IIxZkPS35UFW4QiAJJCQJKYfksDSZtR3rSvvveAIzhmcD8LSeKzw+SsiDQQmDXgqJWsPMYbVSvGmD1lwQgNqukVPQ9JxWf9MMasq/i5z7if5He8aq4O3qE0AKSKgCRN7Sj3+srim7pwkaPn2If3qH+AJGttV9K+h03N2tDz0YOk55Y/9t2o6qjYVUpS0fGwjZvGmE7RPUlcL4Q/l6TMSs8Nv/pM9PwCkDgCkgT1W+ooxi6pxlxW5e2HHEFJj/qx9h5hclZE3UiadjUOt/JDpSzlcEyjil4j+fAVbt2U1C1iThJjTM31JrpTpnO/zFw9+ISSAAACkpQ1o7yJX32XOivJHkQ7OStL+6IobU/bqU35e6Wbf8SFPpzTeV7b/fWGkrJQ6xNjzMAYs2GMWZu2V4kLRTbcxLyfyV9voiETtM58HtdFOAIAL7HMb7q23YNtXN/6XbhYUeXaoYYPLid75A4fS0+f0IgFftmw3DPGDD1c09YkrU/5ez7KwUtA4hrS26LnSBE68jtcqaKst8cdd2x7yub1GL2OU3WvBc13aBU9Emc7j1dEOAIAv0BAkqh+S4PFhrZV8NJ7hdzQF955ZBMOSGz/m1h3ffNga3XA2YeCG0tFX9OWjDFV903/JGGCj0bkjsey3hBzFRRZtvOcJHPJvW5Gcs5jem2KAAB+ieEKPITF59Ll67p8Jc0j9uxJ1oOEBzFgno2ltYJ/PujP7yZlvU11K4YL33YpiTP1fPWYKiM3tIaJlQHgCAKShPVb2ov1Icy8df1ukg/O/WjnHukdbK12OOtQMF91rDbhz6+V7PM3qWqFa1MEZ2L+G85jAMgdAQnifAh7s3JDr19K60i9eJ6tXsODGHAsa+1AfoaZ3JpwMsuah33an2TYz7SMMVXFMfQi9rrcVoyrzfkzFCHSLOdxXQyRA4BjEZAkrt9S2z1oxHeDv/reg6QO1uB+zA+ydIOGLx1P26mdsyFSk5+JTH2dY+tUMW/qFMHJ9dAFoqBuAUCuCEggxfotzJXFN3XhYhpH6MVz2Yf3Yt37bSZnhc/65mk7azn/XNk+N2bklq/doSR+Zdf1sMEU6AUGAKcjIIEU6zheYy6r8vbDJI7Q94NsiA31CzirUdmVn6EJtZx/bhY9a+2eh4bViuiW71tdkfbyLMhQ9H7wde0CgCQRkED9lrqK9Fsqc/XdJOqwPYh2ctb9g63VPc4yeOajN8WSCwxOvj5l39T6WCWiQ8OqpNf+bBgJvXZeWfcx107JcR4DwCleowjgtCXdim6vL1ysqHLtUMMHl0t7ZH4YSE+fxLr39B7BPGxLuuOpobEXQEPE1/CaeTSs9iUN3CvPsLWuSHrDWGs7xpgPJX2S+HndYmhN9Odx173y0uBwAsgbAQkkSf2Wthcb6inC7tNm4Z1HtsQBiX0Y7+SsB1urPMxiXg3KoYqfHHVNp4eAa54+r6+AZMVjY2pD0nZRE3G6yXOXIqrTbddj6U6ip/WmtbbJ1W3mer/gsd7vStoo8vpkjCEgAZA7hthgXJyN2UuXr+vyFQ9ny0WZt29Ir//G30P1z4fS4WPqEzA5H6HBzTOW+6152AefwyN9XPs2rbUr1to2q5T8krV2XdJHCX70lrW2Tg3Iha+Q80Nrbc1jeAsA+TX5KAKMiXY4hHnr+t1CN7Dwjszv/6u08I7fB+LBPeoTMJ2Op+0c20vEGLOmEi3ve9Z8KznZoSF8xj3B2g1JHyqNiVuHrqHd5MjnpuphGwyFAhA1AhK81G9pIGkzyp1/s3JDr1/K/30vX5H5l3/Neo74XlL42RPpUT/W6rR7sLXa5azCHM17Xo6ap+13PG1nwcM21qm2Z3ONz5qyoUhltS+pRkM7d9WC339IoAUgdgQkOCrahxFz9b0Hub3Z65dk/vk/y/yn/yL9Zk7Tm8QbjkRdj1CaRuRA2Rj4oq1N+Pe5NiI9ruhRLdFnKUP93rPWrijWLzVOaWAr64Gw4mPpauSOITUAokdAgl/ot9SR1Ity568svjlzL48LF2UW/1nmX/5VenNhfp/lxXPZh9EOr2FyVqT0sF45OvzELe+7VJLPN1It+P07VNfJGGPqkm6X6CNtSqrSA6FQK5zHAHBGc5AiwDHifDgx5rIqbz+c+vd/tyiz9K/S1ff8D6c56lFfevE81vrD3CMIha8AYe2M/4/98/nAhKwT3e5MW+VY9ncoqSXp99baOhPzFq7ob366FDGA2BGQ4KSH7igngDNX3528Tv/mtzL/6b/IXK9Kr10K4nNEPjlrm1MIQZxH2ZANHz3ijgYiNR8Ny5INQWA4xXnuccYsGGO2FX/PkR1Jf7LWLlhrmwyvAgCEgoAEv+Ima43zm8kLFyuqXDs858/KXK/K/Mv/KC/LBJ/Xo7709Em0D71MzorA+LiWLR9Z7vdWST6XT/QcOIOrYx1P9Stv+5I+VhaKGGvtGkvAAgBC9BpFgBNsKNJvqMzCO4/s8MGpM6uaxX+WFt6xunDRhLb/lslZgbyDhDsetrMmqe2W9/X1uZDefXk58H3cVxZ27SkbbrFnre1w6AAAsSAgwbH6Le0tNrQr6WZ0O3/p8nVdviIdPv71v12+IvNu9YVeu3RBUnDhiA4fH7/fcegdbK3SaENQrLUdY8xQUqXgTdWUBYS+ApKyNToXqK0nM8Y05edLi56y5ZYHY8dlfGLPrn49z8SAFWcAAGVBQILTtBVjQCLJvHX9rj18fOPlX7x+Seb675/p8j+9poCHltF7BCiEjzkbRsFIzcPn2SnhZJYrolfM8fczY2qSGj7qlaTjJkrluADA9NfwBSagjgtzkOBE/ZbainSyVr1ZuaHXL42W7f3ZVP+rXDgSrmdPsvlH4sXqNQhVx8M2KsaYdflZ3rdTwmNED5KTtT1sY9PNC8JDPGaxQhEAv1KjCOJCQIIQHswKYd77zwPzP/xPP+vqe7+JYofjDkc2D7ZWebBGqHx9A94s2ecZV/T57fsBMopAxhhTV/Gh2461ts5lIgmdgt9/xeO5QaiKWKxRBHEhIMFZ4u0V8JvfLshciCMcGdyXfcjSvkAR3Lfiux42VfGwjf05LYla9BwTy8aYqodGVc0Ys6fwJzsdaRb8/j1Jda4SyKsh6CO4cMEh894gFreNMfSuiggBCU7Vb6mrbFwyinD4WLb7b7Lf3ZVePI/1U/QOtlY7HEwErizzKJT5XCsskDfG1I0xXUmfKZJwxK2IVHTvkSbDapLSLfj9K8om+S3ifFgwxjTdefyJ/AxnBHK7d+f1JQBhS/EISHAebYogZ8+eyH7zV9kv/yI9fUKjBiheWQKSuVyPPS3Vesut1pJXg2rFGNM2xgwibVCtcV4gZ10P22i4Hh55ncdrxpi2pIfKJismGEFs54SUhYd705wbrufjujFm293PvuCwFYtVbHCmfkvbiw31uCnl4MXzbDhN/+syfao2Bxahs9Z2jTGxX8eGc15O1Uf5Ndy3Y+uTDiVy387Vxl6x37NqBb//Lr1HkuPr+vGJO48n7qHkfm9FWUBYk5+hi0hX1+O2Ku7caCrrDbp3zDk5uu6vSKrqhB6PxpgVllcvDgEJJmkENyiGGTzqxz6U5jhMzoqYbEu6E/n+z7tx5SN0uKWsN8m+e4jsHvMQueAeIEd/rpSwIVV0WTPJZWKstQOPQfEdSXeMMbtj5/HRxmjVvcp8HiNs3Tld22+717SqYh6ewhCQ4Lw2REAyncPHsv1vpMPHZa0XQCw6IiCZxZ6y8MKXZcUzmWqujDE1H+VrjKnOadJfzPc89tm76qZ7ASGK9fq3IoZIFoY5SHAu/ZYGkjYpiQk8eyJ7r5vNM1LOcGT/YGuV9BrRsNZuSxpG/BE6c94+D2Pls81yqcnpUATAy+eCWM+HKkevOAQkmESbIjing29ke/8uPeqX+VPSewQ0DvzZmfd8EW6885AqVCrLkrpuMts1H0stY+4IOoFf2o9wn7lWF4iABOfWb6mjbJI+nOSHQbZsb//rss01ctSQhyzQOPCqQ/mhIBVlY+E/lfR3Y4w1xgyMMR33arrXmltNgSUmI+aGVO1TEkBw99dJcB0uEHOQYFJNZcslYtyzJ7Lfdss6lObYRhKTsyLWuhvpNSyUYKKt2SaWQxwqejVvxK/mjzDGjP5z1/3Zda+BXk0cuMcqOcFqS/ozxQC8vL/GNj9ZxRizwDW2GAQkmOYisiFmGc+8eJ71FhncT+2TNzn4iJFbxWFfcU3+uR/KRJrW2k4JlkuOQSwPvSeGKNLLIKWnVxMhdtyfe+4zDliqci7aIiABYr+vrYg5hQrBEBtMxE3WShdrSRrcl/37v6UYjuwebK12qQCIvHEQk9AegJpUocIf2MsUGizp1UomDff6VNJnkr44MqRnwxizzjCewusXE+8DcT8XSMxDUhgCEkwj7ck5n/78vf3H/yv73d2yzzNSppsIMK7DOTdT46ot5qPyIaUyHg3puaOsZ8MXLjRpG2PWqAqFaFIEwC/aNrFNQl7lsBWDgAQT67e0p1fjjtPzw7Cvn39M9dMPD7ZW25wFiJn7dj6Wxucw0N4ENK6Kl/rQk5eTx7qwpMmSxLleB7uSPqYkgJe9qmL7ApiedgUhIMG0aCRz3IGYbbOfMz1MtpVyUO5HhyJ4qaJsaE7XGNOkOHLTFL3BgJGNyM6HKoesGAQkmEq/pbbi64qGfG4eAI1P9lOS6twHCsV8X79WkdQwxuwZY2gczMh9a16nJIAoz4dljloxCEgwizZFkJQdJmdFiR6EtiNp3G8HXIbdyBtX+5L+GGo9cOVLL52TGwZ7TOaaSz3rSPoo4o+w685jILnzgaC4GAQkmAW9CdLSpghQMp3QH/zdN1ohP0xuS/owsuM+lPSRtXbFPQyH3FOjyWl6ooqkDiFJLufxhuJb1aYn6U/W2po7j/c5kkjwfKhyxPJHQIKp9VvqStqhJJLQO9hapbs3ymab/cvlYbKtOEKSoaSWpKp7AB7pBFy2HdGL5DSjkITJW2eva/VIGoU9SR9aa6suoA3+PEa050MMkxjXOFr5IyDBrNoUAccZiBQBSX4Pk22FO1xlPBhpHtMrJ/SG1ZqY6+U0FTFfS56NwlDDzvFg5Lhnkg5HEDmfD+vufAj5+ks4XAACEsyk39K2mAE9BW2KACV8+Bko3G7ZPTcHRUzl2VHW3TeUHg+7rkG1cEIwMtrvbsD1YFRPayIkOc1NY0ydYsilvrUl/SGgc2JH2VCak4KR0X4TkqGo82FF9ORLCgEJaDzjzIcTJmcF1y/vonzYt9YOrLU1Zb1J5hGe7yvrLfJ7NzfBeY9vJ/By3VMWkjDPwsmaFEF+9c1au6Ls2/N5nccfSXrLWrs2QfhBIxZFnA/dsftaCHVsZ+z8WOcI5e81igA52JDUoBhKfXyBstpWmF1U2zEX6qg3iTFmTdlKN7cK2tRQWbjRkbQ9Q6+btqTQJ8Tdk7RijGlKWlc2tASvLBlj1mbsSdDxsJ/diM7jtqS2652zruKWFe0dOY+nPRebyndOhi516VzXzk4K54u7r9XcyjHryoY/LhW82aGkvdH54fYBBTPWWkoBM1tsqC3pdhIfdnC/Z7+7u5TIoe0dbK1WqeEAZnrYyCbRXHONl5UpG1o997C8N3q50CDF8hw9oNdFUDJux1q7RjEUWu9qY6+lGc7jzth53KV0Eek5sTJ2X5v23ia9CkK64/c5zo05HVcCEuRhsaGapM+S+LBpBSQfHWyt0oMEQFEPlqPeO+P/Lf3yG8kuD4mnluOaXoVPS5SI3gp9eewSn8e1I//MeYwUz4kFd08T50Wkx5CABHlZbKibxMNZWgHJWwdbqzxoAkAcD+ZVvfoms+YarsuJFcOfmLATADAt5iBBnpqSPqEYSmOTcAQA4uG+iezqmEl+jTE195+jP0ff/FdVri83VsSyvwCAKRGQIE/byib0ZDx0ObQpAgAoh7HJ/TrH/ftYt/Dx7uE19+fNiD5qjaMNAJgWQ2yQqyQma01jiM3+wdbqCjUaAPDyofHVfBNV9xoPU0IJUXrW2ipHCwAwDXqQIG8bSmU1m/IfRwAAXjrPqkHHhCijOVF8fbHARLUAgKkRkCBX/Zb2FhvaVVzdcfFLQzF+GwAwhZNCFDeBbF3Z8sQMxQUABOkCRYACtCmCqG0zOSsAIE/W2q61tqlsjpBhkdsam5AWAICJEJAgd/2W2kU//KBQDK8BABTC9TBZpyQAACEiIEFR2hRBlPYPtlb3KAYAQFGstTwjAACCRECCotALgeMGAMBJdikCAEBoCEhQiH5LXUk7lERUhgdbq22KAQAAAECKCEhQJBrbHC8AAI7TpQgAAKEhIEFh+i1tS+pREtFgeA0AwJcqRQAACA0BCYrWpgiisHuwtdqlGAAAAACkioAERaNXQhzaFAEAwKOVot7YWtuheAEA0yAgQaH6LQ0kbVISQesxOSsAhMUYU3evlRJ+tnVJFY4yACA0r1EE8KAt6TbFEPTxAQCEpSlpSZKMMUNJHUl7oz+ttYMYP5QLfJoFbmJI1QEATH2fstZSCijcYkPd0YNe9Ab3e/a7u0slOjy/Z/4RAAjsAc2Ysx7QesoCk9Gra63dC/jzVCXVJTUK3tSutbZGDQIArFpa+QAACCBJREFUTIMeJPClKekTiiE4O4QjABCWcw6rWXKvW2O/J0n7kgbKeppo7E+vvU5cIFKVVHOvm542zT0NADA1AhL4sq1swlbGHIelTREAQHCqM/zusvtzFEi87LHhApShsh4nI3vKApVZrEhaGNv3efay7FJ9AADTIiCBF/2WBosNbYu5SELSO9ha3aYYACA4RU7MWtEve3PcLFnZdag+AIBpsYoNfGLJX44HAOBsKxTBdFjiFwAwCwISeNNvaU/SLiURjDZFAABBqlIEU9mhCAAAsyAgAY3yNG0ebK0OKAYACNIyRTAVho0CAGZCQAKv+i21lU0Qh/lqUwQAEJ5zrmCDXxtaa7m3AQBmQkACGufp6R1srXYoBgAIUpUimArzagEAZkZAAh5iKH8AQDjoQTK5Ifc2AEAeCEjgXb+lrphIbZ4PkW2KAQCCRUAyubq1lnm1AAAzIyDBvDQl9SgGr3qS6kzOCgBBq1IEE9m01jI5KwAgFwQkmAu35O+KpJaYtLVoQ1fOKwdbqzxEAkDYWMHm/PYlrVMMAIC8GGstpYC5WmyoqqxHye0odnhwv2e/u7sUSfFuSmoebK12qWkAEPhDWbaCzReUxLnsS6oxtAYAkOu9mIAEoVhsqKYsKLkZ9I7GEZDsS1pntRoAiOihzJg1SZ9SEmfaEfOOAAAK8BpFgFD0W+pIqi02VFc2G32FUpnYUFkw0qYoACA6TNB69j2uaa1lxRoAQCGYgwTB6bfUVjZJXYvSmEhLUpVwBACiVaUITrQpaYVwBABQJIbYIGhufpINSbeC2anwhtjsKOs10qXGAEDkD2bZPCQ1SWsKfchp8YaStpX1GuEeBwAo/j5MQIIYuPlJNhTC7P7hBCSjZXs71BAAKOmDmjE1ZYHJKDhJYfjpjrJgZJt5RgAAXu+7BCSIyWJD68omcp3fA+L8A5KhspVp6GYMAKk9uBlTVTYUp6YsNKkq/qWB9yV1Ri9CEQDA3O6zBCSIzWJDC8pCkjtz2YH5BiQfKwtHeHgEALx6oHsVnKxIWlAWoMj9fyi9TnqSupL2Rn9aazscPQBAMPdTAhLEys1P0pbvMdrzCUh2lQ2n6XLkAQATP/AZs6BXq+RU9csJYUehykx3R2XBx0jXvaQsCCHYBwCEf78kIEHs3PwkbUl+Qgu/AQnzjAAAAACABwQkKI3FhpqS1lV0V2I/AclQ0sbB1mqTIwsAAAAAxbtAEaAs+i01lXUZ3oz8o2xKqhKOAAAAAIA/9CBBKS02tKJsWeD85ycprgfJrqT1g63VPY4gAAAAAPhFQIJSW2yormzFm/wCjfwDkp6yYGSbIwYAAAAA88EQG5Rav6W2stn5W8rm9QjJ0O3XCuEIAAAAAMwXPUiQDLcscFPS7ZneKJ8eJJuSmizbCwAAAABhICBBctyywBuSlqd6g9kCkl1lwUiHIwEAAAAA4SAgQbLc/CQbmnRZ4OkCkqGyeUbalDwAAAAAhIc5SJAsNz9JVdk8IEVqKVu2t02pAwAAAECY6EEC6OX8JBuSbp35w+fvQbKjrNdIlxIGAAAAgLARkABj3PwkbZ22LPDZAcm+smCkQ4kCAAAAQBwISIBjLDa0rmzFm1/PT3JyQDJUNgHrBiUIAAAAAHFhDhLgGP2WNpTNT/LxOX/lY2XzjBCOAAAAAECE6EECnGGxoRVl85PclHS0B8mupDrzjAAAAABA3AhIgHNabGhN0oYG92W/uytlwUiHkgEAAACA+BGQABO6+r9+9b8c/J/v/1+UBAAAAACUBwEJAAAAAABIHpO0AgAAAACA5BGQAAAAAACA5BGQAAAAAACA5BGQAAAAAACA5BGQAAAAAACA5BGQAAAAAACA5BGQAAAAAACA5BGQAAAAAACA5BGQAAAAAACA5BGQAAAAAACA5BGQAAAAAACA5BGQAAAAAACA5BGQAAAAAACA5BGQAAAAAACA5BGQAAAAAACA5BGQAAAAAACA5BGQAAAAAACA5BGQAAAAAACA5BGQAAAAAACA5BGQAAAAAACA5BGQAAAAAACA5BGQAAAAAACA5BGQAAAAAACA5BGQAAAAAACA5BGQAAAAAACA5BGQAAAAAACA5BGQAAAAAACA5BGQAAAAAACA5BGQAAAAAACA5BGQAAAAAACA5BGQAAAAAACA5BGQAAAAAACA5BGQAAAAAACA5BGQAAAAAACA5BGQAAAAAACA5BGQAAAAAACA5BGQAAAAAACA5BGQAAAAAACA5BGQAAAAAACA5BGQAAAAAACA5BGQAAAAAACA5BGQAAAAAACA5BGQAAAAAACA5BGQAAAAAACA5BGQAAAAAACA5BGQAAAAAACA5BGQAAAAAACA5BGQAAAAAACA5BGQAAAAAACA5BGQAAAAAACA5BGQAAAAAACA5BGQAAAAAACA5BGQAAAAAACA5BGQAAAAAACA5BGQAAAAAACA5BGQAAAAAACA5BGQAAAAAACA5BGQAAAAAACA5BGQAAAAAACA5BGQAAAAAACA5BGQAAAAAACA5BGQAAAAAACA5BGQAAAAAACA5BGQAAAAAACA5BGQAAAAAACA5BGQAAAAAACA5BGQAAAAAACA5BGQAAAAAACA5BGQAAAAAACA5BGQAAAAAACA5BGQAAAAAACA5BGQAAAAAACA5BGQAAAAAACA5BGQAAAAAACA5BGQAAAAAACA5BGQAAAAAACA5BGQAAAAAACA5BGQAAAAAACA5BGQAAAAAACA5BGQAAAAAACA5BGQAAAAAACA5BGQAAAAAACA5P3/LR+YnbSna00AAAAASUVORK5CYII=;" vertex="1" parent="1">
                    <mxGeometry x="480" y="60" width="106" height="40.43" as="geometry"/>
                </mxCell>
                <mxCell id="7" value="ssh" style="edgeStyle=orthogonalEdgeStyle;rounded=0;orthogonalLoop=1;jettySize=auto;html=1;entryX=0.25;entryY=1;entryDx=0;entryDy=0;exitX=0;exitY=0.5;exitDx=0;exitDy=0;" edge="1" parent="1" source="3" target="3">
                    <mxGeometry relative="1" as="geometry"/>
                </mxCell>
            </root>
        </mxGraphModel>
    </diagram>
</mxfile>